<svg width="25" height="24" viewBox="0 0 25 24" fill="none" xmlns="http://www.w3.org/2000/svg">
<path d="M10.6064 5.52924V5.07727C10.6064 4.71569 11.1639 4.71569 11.1639 5.07727V5.52924C11.1639 5.89082 10.6064 5.89082 10.6064 5.52924ZM11.4049 7.17139C12.0678 7.45767 12.6253 7.18648 12.6554 7.17139C13.0019 7.05086 12.8061 6.52353 12.4596 6.64406C12.3993 6.65915 12.0829 6.85498 11.6159 6.64406C11.2844 6.50849 11.0735 7.02073 11.4049 7.17139ZM14.5687 17.9586C14.5687 19.4049 13.3936 20.5952 11.9322 20.5952C10.4859 20.5952 9.29564 19.42 9.29564 17.9586C9.29564 16.5123 10.4708 15.3221 11.9322 15.3221C13.3936 15.3221 14.5838 16.4972 14.5687 17.9586ZM14.0113 17.9586C14.0113 16.8136 13.0772 15.8795 11.9322 15.8795C10.7872 15.8795 9.85316 16.8136 9.85316 17.9586C9.85316 19.1036 10.7872 20.0377 11.9322 20.0377C13.0923 20.0377 14.0264 19.1036 14.0113 17.9586ZM24 22.8249V23.3523C24 23.5029 23.8795 23.6234 23.7288 23.6234H15.9096H8.09043H0.271185C0.120527 23.6234 0 23.5029 0 23.3523V22.8249C0 21.7854 0.843686 20.9568 1.86816 20.9568H5.86063V19.9172C4.17326 21.4087 1.47645 20.2034 1.47645 17.9435C1.47645 15.6837 4.17326 14.4784 5.86063 15.9699V13.8154C5.86063 13.6648 5.98116 13.5443 6.13182 13.5443H7.39735V10.29C7.39735 9.00942 8.43692 7.9699 9.71749 7.9699H10.064C9.50662 7.54806 9.11485 6.9153 9.02446 6.19214H8.49713C7.90953 6.19214 7.42743 5.72512 7.42743 5.13753C7.44252 5.04713 7.24664 4.05279 8.21085 3.79664V3.23918C8.21085 1.44632 9.67226 0 11.45 0H12.5348C14.3276 0 15.7739 1.46141 15.7739 3.23918V3.79664C16.7231 4.05273 16.5423 5.07727 16.5574 5.13753C16.5574 5.72512 16.0753 6.19214 15.4877 6.19214H14.9603C14.8549 6.9153 14.4782 7.54806 13.9208 7.9699H14.2673C15.5479 7.9699 16.5875 9.00947 16.5875 10.29V13.5443H17.8681C18.0187 13.5443 18.1393 13.6648 18.1393 13.8154V15.8795C19.8869 14.5236 22.4029 15.7741 22.4029 17.9586C22.4029 20.1582 19.8719 21.3785 18.1393 20.0377V20.9717H22.1317C23.1563 20.9718 24 21.8155 24 22.8249ZM19.7514 20.0377C20.8964 20.0377 21.8305 19.1036 21.8305 17.9586C21.8305 15.9548 19.2693 15.1112 18.0791 16.7232C17.0697 18.0641 18.0339 20.0377 19.7514 20.0377ZM13.4991 8.51227C13.9511 9.56688 14.1469 9.68741 14.0113 9.91342C13.8758 10.1394 13.6799 10.0038 12.565 10.049L12.9718 13.5293H14.4332V11.8871C14.4332 11.5255 14.9907 11.5255 14.9907 11.8871V13.5293H16.0303V10.29C16.0303 9.32583 15.2468 8.52731 14.2675 8.52731L13.4991 8.51227ZM12.5951 8.58763V8.52737C12.6102 8.52737 12.3239 8.52737 12.3089 8.52737C12.354 8.52737 11.6007 8.52737 11.435 8.52737V8.58763C11.435 8.90399 11.6911 9.16013 12.0075 9.16013C12.3239 9.16013 12.58 8.90399 12.5951 8.58763ZM11.9774 9.85316L11.5405 13.5292H12.4143L11.9774 9.85316ZM13.3484 9.49158L13.0772 8.90399C13.0169 9.14504 12.8663 9.34092 12.6704 9.49158H13.3484ZM15.0358 4.59516L14.9906 4.83621V5.63473H15.4878C15.7741 5.63473 16.0001 5.40871 16.0001 5.13753V4.80608C16 4.27875 15.2769 4.11305 15.0358 4.59516ZM8.99438 4.80608C8.99438 4.14318 7.98494 4.14318 7.98494 4.80608V5.13753C7.98494 5.40871 8.21096 5.63473 8.49718 5.63473H8.99438V4.80608ZM9.25047 4.06783L11.3296 2.59138C11.9322 2.16953 12.0075 4.39928 14.4934 4.5349C14.5989 4.14318 14.9303 3.872 15.2316 3.7967V3.23923C15.2316 1.76278 14.0264 0.557516 12.5499 0.557516H11.4652C9.98873 0.557516 8.78346 1.76278 8.78346 3.23923V3.7816C8.90393 3.82677 9.11491 3.93221 9.25047 4.06783ZM11.194 7.90964C11.5405 8.00004 11.8117 7.95481 12.2787 7.9699C13.4388 7.9699 14.4181 7.03582 14.4181 5.83056V5.0923C14.0113 5.07727 13.6196 5.00191 13.258 4.86629C13.4539 5.00191 13.3484 5.1827 13.3786 5.52919C13.3786 5.89077 12.8211 5.89077 12.8211 5.52919V5.07721C12.8211 4.91146 12.9567 4.7759 13.1525 4.80603C11.9473 4.29379 11.5254 3.34461 11.4049 3.19396L9.55179 4.50471V4.80603V5.81541C9.55179 6.8249 10.2298 7.68363 11.194 7.90964ZM10.9378 8.94916L10.6817 9.49153H11.3296C11.1488 9.35596 10.9981 9.17517 10.9378 8.94916ZM7.93977 13.5292H8.97934V11.887C8.97934 11.5254 9.5368 11.5254 9.5368 11.887V13.5292H10.9681L11.3899 10.049H10.2298C10.0189 10.049 9.88329 9.83807 9.97369 9.65728L10.501 8.52731H9.71759C8.75338 8.52731 7.95486 9.31074 7.95486 10.29L7.93977 13.5292ZM5.89077 19.0434C6.74955 17.6874 5.74011 15.8795 4.113 15.8795C2.968 15.8795 2.03391 16.8136 2.03391 17.9586C2.03391 20.0528 4.80603 20.8362 5.89077 19.0434ZM7.81919 22.84C7.81919 22.2222 7.38231 21.6799 6.76458 21.5593C6.59889 21.5142 6.9002 21.5292 1.86816 21.5292C1.145 21.5292 0.557409 22.1168 0.557409 22.84V23.081H7.81919V22.84ZM15.6233 22.84C15.6233 22.1168 15.0358 21.5292 14.3126 21.5292H9.67226C8.9491 21.5292 8.36151 22.1168 8.36151 22.84V23.081H15.6233V22.84H15.6233ZM17.597 20.9567V19.435C16.9642 18.5462 16.9944 17.3258 17.597 16.452V14.0866H12.7608C12.7458 14.0866 12.7458 14.0866 12.7458 14.0866H11.2392C11.2241 14.0866 11.2241 14.0866 11.2241 14.0866H6.4181V16.6478C6.87007 17.4312 6.88511 18.4557 6.4181 19.2542V20.9717C6.47836 20.9717 6.65915 20.9567 6.87007 21.0019C7.38231 21.1074 7.81925 21.4237 8.09043 21.8607C8.42188 21.3333 8.99438 20.9718 9.67237 20.9718H14.3126C14.9906 20.9718 15.5782 21.3334 15.9247 21.8607C16.5273 20.8663 17.582 20.9567 17.597 20.9567ZM23.4426 22.84C23.4426 22.1168 22.855 21.5292 22.1318 21.5292C20.0377 21.5292 18.8324 21.5292 17.4916 21.5292C16.7684 21.5292 16.1808 22.1168 16.1808 22.84V23.081H23.4426V22.84ZM0.753292 8.49718V5.77029C0.753292 5.34845 1.09983 5.017 1.50658 5.017H6.28248C6.70432 5.017 7.03577 5.36349 7.03577 5.77029V8.49724C7.03577 8.91908 6.68928 9.25053 6.28248 9.25053H4.65537C4.64033 9.6272 4.77589 10.1093 4.38418 10.1093C4.23352 10.1093 4.2787 10.0641 3.02826 9.25053H1.50658C1.09983 9.25053 0.753292 8.91908 0.753292 8.49718ZM1.31075 8.48214C1.31075 8.58763 1.40115 8.67797 1.50658 8.67797C3.70619 8.76837 2.74198 8.40679 4.113 9.2957V8.96425C4.113 8.81359 4.23352 8.69306 4.38418 8.69306H6.28248C6.38791 8.69306 6.47831 8.60267 6.47831 8.49724V5.77029C6.47831 5.66481 6.38791 5.57446 6.28248 5.57446H1.50658C1.4011 5.57446 1.31075 5.66486 1.31075 5.77029V8.48214ZM2.16948 7.69872C2.71185 7.69872 2.71185 6.88517 2.16948 6.88517C1.62711 6.88517 1.62711 7.69872 2.16948 7.69872ZM3.82672 7.69872C4.36909 7.69872 4.36909 6.88517 3.82672 6.88517C3.28435 6.88517 3.28435 7.69872 3.82672 7.69872ZM5.90586 7.29192C5.90586 7.0659 5.72507 6.88517 5.49905 6.88517C5.27304 6.88517 5.09225 7.06596 5.09225 7.29192C5.0923 7.83429 5.90586 7.83429 5.90586 7.29192Z" fill="#828282" stroke="#828282" stroke-width="0.2"/>
</svg>
