<svg width="24" height="24" viewBox="0 0 24 24" fill="none" xmlns="http://www.w3.org/2000/svg">
<path d="M19.725 8.7H11.4672L10.9913 7.71825C10.8867 7.50287 10.7236 7.32128 10.5207 7.19425C10.3178 7.06723 10.0832 6.99991 9.84375 7H5.275C4.93685 7 4.61255 7.13433 4.37344 7.37344C4.13433 7.61255 4 7.93685 4 8.275V20.175C4 20.5132 4.13433 20.8375 4.37344 21.0766C4.61255 21.3157 4.93685 21.45 5.275 21.45H19.725C20.0632 21.45 20.3875 21.3157 20.6266 21.0766C20.8657 20.8375 21 20.5132 21 20.175V9.975C21 9.63685 20.8657 9.31255 20.6266 9.07344C20.3875 8.83433 20.0632 8.7 19.725 8.7ZM20.15 20.175C20.15 20.2877 20.1052 20.3958 20.0255 20.4755C19.9458 20.5552 19.8377 20.6 19.725 20.6H5.275C5.16228 20.6 5.05418 20.5552 4.97448 20.4755C4.89478 20.3958 4.85 20.2877 4.85 20.175V8.275C4.85 8.16228 4.89478 8.05418 4.97448 7.97448C5.05418 7.89478 5.16228 7.85 5.275 7.85H9.84375C9.9234 7.84984 10.0015 7.87207 10.0691 7.91415C10.1368 7.95623 10.1912 8.01647 10.2263 8.088L11.412 10.5317C11.5165 10.7471 11.6796 10.9287 11.8826 11.0557C12.0855 11.1828 12.3201 11.2501 12.5595 11.25H18.875C18.9877 11.25 19.0958 11.2052 19.1755 11.1255C19.2552 11.0458 19.3 10.9377 19.3 10.825C19.3 10.7123 19.2552 10.6042 19.1755 10.5245C19.0958 10.4448 18.9877 10.4 18.875 10.4H12.5595C12.4798 10.4002 12.4018 10.3779 12.3341 10.3358C12.2665 10.2938 12.212 10.2335 12.177 10.162L11.8795 9.55H19.725C19.8377 9.55 19.9458 9.59478 20.0255 9.67448C20.1052 9.75418 20.15 9.86228 20.15 9.975V20.175Z" fill="#828282"/>
<path d="M20.0228 5.48955H21.255C21.4869 5.48955 21.6741 5.30234 21.6741 5.07043C21.6741 4.83852 21.4869 4.65132 21.255 4.65132H20.0228V3.41912C20.0228 3.18721 19.8355 3 19.6036 3C19.3717 3 19.1845 3.18721 19.1845 3.41912V4.65132H17.9523C17.7204 4.65132 17.5332 4.83852 17.5332 5.07043C17.5332 5.30234 17.7204 5.48955 17.9523 5.48955H19.1845V6.72175C19.1845 6.95366 19.3717 7.14086 19.6036 7.14086C19.8355 7.14086 20.0228 6.95366 20.0228 6.72175V5.48955Z" fill="#828282"/>
</svg>
