<svg width="24" height="24" viewBox="0 0 24 24" fill="none" xmlns="http://www.w3.org/2000/svg">
<path d="M6.70527 7.88905C8.05534 7.88905 9.14979 6.7946 9.14979 5.44452C9.14979 4.09445 8.05534 3 6.70527 3C5.35519 3 4.26074 4.09445 4.26074 5.44452C4.26074 6.7946 5.35519 7.88905 6.70527 7.88905Z" stroke="#1DAEDE" stroke-width="1.4" stroke-miterlimit="1" stroke-linecap="round" stroke-linejoin="round"/>
<path d="M14.8521 10.3332C16.6522 10.3332 18.1115 8.87392 18.1115 7.07382C18.1115 5.27372 16.6522 3.81445 14.8521 3.81445C13.052 3.81445 11.5928 5.27372 11.5928 7.07382C11.5928 8.87392 13.052 10.3332 14.8521 10.3332Z" stroke="#1DAEDE" stroke-width="1.4" stroke-miterlimit="1" stroke-linecap="round" stroke-linejoin="round"/>
<path d="M14.8399 18.4825H7.51855C7.51855 15.1033 7.565 12.7786 14.8521 12.7786C16.613 12.7786 17.951 12.9195 18.9679 13.1787" stroke="#1DAEDE" stroke-width="1.4" stroke-miterlimit="1" stroke-linecap="round" stroke-linejoin="round"/>
<path d="M5.07421 14.4055H1C1 11.9919 1.03667 10.3313 6.70389 10.3313C7.87645 10.3313 8.80781 10.4046 9.54769 10.5423" stroke="#1DAEDE" stroke-width="1.4" stroke-miterlimit="1" stroke-linecap="round" stroke-linejoin="round"/>
<path d="M20.5566 16.0422V20.9313" stroke="#1DAEDE" stroke-width="1.4" stroke-miterlimit="100" stroke-linecap="round" stroke-linejoin="round"/>
<path d="M18.1113 18.4832H23.0004" stroke="#1DAEDE" stroke-width="1.4" stroke-miterlimit="100" stroke-linecap="round" stroke-linejoin="round"/>
</svg>
