<svg width="24" height="24" viewBox="0 0 24 24" fill="none" xmlns="http://www.w3.org/2000/svg">
<path d="M17.4188 13.9189C17.0311 12.7677 16.2921 11.7671 15.3059 11.0579C14.3196 10.3488 13.1358 9.96679 11.9211 9.96578H10.7722C11.7902 9.86027 12.7288 9.36793 13.3944 8.59041C14.0599 7.81288 14.4015 6.80951 14.3487 5.78741C14.2959 4.7653 13.8526 3.80249 13.1105 3.09772C12.3684 2.39294 11.384 2 10.3605 2C9.33702 2 8.35262 2.39294 7.61048 3.09772C6.86834 3.80249 6.42511 4.7653 6.37228 5.78741C6.31946 6.80951 6.66107 7.81288 7.3266 8.59041C7.99213 9.36793 8.93078 9.86027 9.94879 9.96578H8.79563C7.25886 9.96803 5.78571 10.5797 4.69925 11.6665C3.61278 12.7534 3.0017 14.2267 3.00001 15.7635V17.6784C2.99945 17.7367 3.01491 17.7941 3.04469 17.8443C3.65894 18.8757 4.48442 19.7654 5.46691 20.4551C6.44941 21.1448 7.56669 21.6188 8.74539 21.8461C9.92409 22.0734 11.1375 22.0487 12.306 21.7737C13.4745 21.4987 14.5716 20.9797 15.5253 20.2507C15.9739 20.5412 16.4841 20.7234 17.0153 20.7826C17.5466 20.8418 18.0843 20.7765 18.5859 20.5918C19.0875 20.4072 19.5393 20.1082 19.9053 19.7187C20.2714 19.3292 20.5417 18.8597 20.6948 18.3476C20.848 17.8355 20.8798 17.2947 20.7877 16.7682C20.6956 16.2417 20.4822 15.7438 20.1643 15.3141C19.8464 14.8843 19.4328 14.5345 18.9563 14.2924C18.4797 14.0502 17.9534 13.9223 17.4188 13.9189ZM7.01269 5.99565C7.01269 5.33373 7.20897 4.68668 7.57672 4.13631C7.94446 3.58594 8.46715 3.15698 9.07868 2.90368C9.69022 2.65037 10.3631 2.58409 11.0123 2.71323C11.6615 2.84236 12.2579 3.16111 12.7259 3.62916C13.194 4.0972 13.5127 4.69354 13.6418 5.34274C13.771 5.99194 13.7047 6.66486 13.4514 7.27639C13.1981 7.88793 12.7691 8.41062 12.2188 8.77836C11.6684 9.1461 11.0213 9.34239 10.3594 9.34239C9.47216 9.34126 8.62156 8.9883 7.99417 8.36091C7.36678 7.73352 7.01382 6.88292 7.01269 5.99565ZM10.3594 21.3655C9.01179 21.3607 7.6877 21.0119 6.51262 20.3522C5.33753 19.6924 4.35037 18.7435 3.64468 17.5954V15.7635C3.64637 14.3979 4.1896 13.0887 5.15522 12.1231C6.12085 11.1575 7.43003 10.6143 8.79563 10.6126H11.9211C12.9752 10.6128 14.004 10.9359 14.869 11.5384C15.734 12.1409 16.3937 12.994 16.7593 13.9827C16.1395 14.0995 15.5637 14.3845 15.0949 14.8065C14.6261 15.2284 14.2823 15.7711 14.1011 16.3753C13.92 16.9794 13.9084 17.6218 14.0676 18.2321C14.2268 18.8424 14.5508 19.3971 15.004 19.8358C13.6565 20.8239 12.0304 21.3595 10.3594 21.3655ZM17.3997 20.1698C16.846 20.1702 16.3046 20.0065 15.844 19.6993C15.3834 19.392 15.0241 18.9551 14.8118 18.4438C14.5994 17.9325 14.5434 17.3696 14.6509 16.8265C14.7583 16.2833 15.0244 15.7842 15.4155 15.3923C15.8065 15.0003 16.305 14.7331 16.8479 14.6244C17.3908 14.5157 17.9538 14.5704 18.4656 14.7816C18.9774 14.9928 19.4151 15.3511 19.7234 15.811C20.0317 16.2709 20.1967 16.8119 20.1975 17.3656C20.1964 18.1073 19.9012 18.8183 19.3768 19.3427C18.8523 19.8672 18.1414 20.1623 17.3997 20.1634V20.1698Z" fill="#828282" stroke="#828282" stroke-width="0.3"/>
<path d="M17.7207 15.6208H17.076V17.0421H15.6548V17.6868H17.076V19.1101H17.7207V17.6868H19.1419V17.0421H17.7207V15.6208Z" fill="#828282" stroke="#828282" stroke-width="0.3"/>
</svg>
