<svg width="24" height="24" viewBox="0 0 24 24" fill="none" xmlns="http://www.w3.org/2000/svg">
<path d="M8.99997 11.6871C8.99997 11.8598 9.13981 11.9996 9.31246 11.9996H14.3123C14.485 11.9996 14.6248 11.8598 14.6248 11.6871V8.41221L14.7576 8.50596C14.8123 8.54424 14.8748 8.56221 14.9365 8.56221C15.035 8.56221 15.1318 8.51534 15.1928 8.4294C15.2912 8.288 15.2568 8.09347 15.1162 7.99425L11.9913 5.80671C11.8835 5.73171 11.7405 5.73171 11.6327 5.80671L8.50778 7.99425C8.36638 8.09269 8.332 8.28801 8.43122 8.4294C8.53043 8.5708 8.72497 8.60518 8.86637 8.50596L8.99918 8.41221V11.6871H8.99997ZM12.1249 11.3746H11.4999V10.4372H12.1249V11.3746ZM11.8124 6.44356L13.9999 7.97476V11.3747H12.75V10.1247C12.75 9.95206 12.6101 9.81222 12.4375 9.81222H11.1875C11.0149 9.81222 10.875 9.95206 10.875 10.1247V11.3747H9.62506V7.97476L11.8124 6.44356Z" fill="#828282" stroke="#828282" stroke-width="0.3"/>
<path d="M11.5 9.18755H12.125C12.2976 9.18755 12.4375 9.0477 12.4375 8.87505C12.4375 8.7024 12.2976 8.56256 12.125 8.56256H11.5C11.3273 8.56256 11.1875 8.7024 11.1875 8.87505C11.1875 9.0477 11.3273 9.18755 11.5 9.18755Z" fill="#828282" stroke="#828282" stroke-width="0.3"/>
<path d="M18.1683 16.5325C17.4113 16.0715 16.4012 15.7044 15.2262 15.4591C17.3151 12.8849 18.3745 10.5646 18.3745 8.56164C18.3745 4.94373 15.4308 2 11.8122 2C8.19374 2 5.25001 4.94373 5.25001 8.56224C5.25001 10.5654 6.30936 12.8855 8.39833 15.4597C7.22258 15.7042 6.21238 16.0721 5.4562 16.5331C4.50311 17.1127 4 17.8143 4 18.5626C4 19.5314 4.84842 20.4188 6.38894 21.061C7.8428 21.6672 9.76846 22 11.8122 22C13.856 22 15.7817 21.6664 17.2355 21.061C18.7761 20.4188 19.6244 19.5313 19.6244 18.5626C19.6244 17.815 19.1213 17.1127 18.1682 16.5331L18.1683 16.5325ZM11.8122 2.62502C15.0856 2.62502 17.7497 5.28896 17.7497 8.56248C17.7497 10.889 16.0919 13.4092 14.7014 15.1147C13.4983 16.5897 12.2826 17.724 11.8124 18.1458C11.3421 17.724 10.1258 16.5896 8.92352 15.1147C7.53293 13.4101 5.87519 10.8898 5.87519 8.56248C5.87519 5.28916 8.53913 2.62502 11.8126 2.62502H11.8122ZM11.8122 21.3746C7.51315 21.3746 4.62482 19.9207 4.62482 18.5622C4.62482 17.9076 5.25371 17.3873 5.78104 17.0669C6.54664 16.6013 7.60755 16.2365 8.85516 16.0076C10.2661 17.6529 11.5505 18.7497 11.6097 18.7997C11.6675 18.8497 11.7402 18.8739 11.812 18.8739C11.8839 18.8739 11.9558 18.8489 12.0144 18.7997C12.0737 18.7497 13.3581 17.6521 14.7689 16.0076C16.0173 16.2357 17.0782 16.6005 17.843 17.0669C18.3703 17.388 18.9992 17.9083 18.9992 18.5622C18.9992 19.9208 16.1111 21.3746 11.8118 21.3746H11.8122Z" fill="#828282" stroke="#828282" stroke-width="0.3"/>
</svg>
