<svg width="24" height="24" viewBox="0 0 24 24" fill="none" xmlns="http://www.w3.org/2000/svg">
<path d="M21.6949 8.73006L12.6955 2.08437C12.6209 2.02956 12.5307 2 12.4381 2C12.3455 2 12.2553 2.02956 12.1807 2.08437L3.17697 8.73006C3.10344 8.78253 3.04868 8.85719 3.02073 8.94309C2.99277 9.02898 2.9931 9.12158 3.02167 9.20727C3.05023 9.29297 3.10553 9.36724 3.17943 9.41919C3.25332 9.47113 3.34193 9.49801 3.43224 9.49587H4.68696V18.4952H3.53175C3.41665 18.4943 3.3058 18.5387 3.22321 18.6188C3.14061 18.699 3.09291 18.8085 3.09044 18.9236V21.5801C3.09149 21.6368 3.10378 21.6926 3.12661 21.7445C3.14943 21.7963 3.18232 21.8431 3.22337 21.8822C3.26443 21.9212 3.31283 21.9517 3.36577 21.9719C3.4187 21.9921 3.47512 22.0016 3.53175 21.9998H21.3444C21.401 22.0012 21.4572 21.9915 21.51 21.9712C21.5628 21.9509 21.611 21.9203 21.652 21.8814C21.693 21.8424 21.7259 21.7957 21.7489 21.744C21.7718 21.6923 21.7843 21.6366 21.7857 21.5801V18.9236C21.784 18.8082 21.7365 18.6984 21.6538 18.618C21.571 18.5377 21.4597 18.4935 21.3444 18.4952H20.1806V9.50019H21.4353C21.5257 9.50168 21.6143 9.47436 21.6882 9.42219C21.7622 9.37002 21.8176 9.2957 21.8465 9.20997C21.8754 9.12424 21.8763 9.03154 21.849 8.94527C21.8218 8.859 21.7678 8.78363 21.6949 8.73006ZM12.4359 2.96268L20.12 8.63487H4.75186L12.4359 2.96268ZM14.5127 18.4996V9.50019H16.4597V18.4996H14.5127ZM10.3592 9.50019V18.4996H8.41217V9.50019H10.3592ZM11.2245 9.50019H13.6474V18.4996H11.2245V9.50019ZM5.55661 9.50019H7.54685V18.4996H5.55661V9.50019ZM20.9161 21.1388H3.95576V19.3649H20.9161V21.1388ZM19.3152 18.4996H17.325V9.50019H19.3152V18.4996Z" fill="#828282"/>
</svg>
