<svg width="24" height="24" viewBox="0 0 24 24" fill="none" xmlns="http://www.w3.org/2000/svg">
<path d="M19.57 6.73L14.9 1.95C14.7605 1.80767 14.594 1.69457 14.4103 1.6173C14.2266 1.54004 14.0293 1.50016 13.83 1.5H6.5C6.10218 1.5 5.72064 1.65804 5.43934 1.93934C5.15804 2.22064 5 2.60218 5 3V3.5H4.5C4.10218 3.5 3.72064 3.65804 3.43934 3.93934C3.15804 4.22064 3 4.60218 3 5V7.5C3 7.63261 3.05268 7.75979 3.14645 7.85355C3.24021 7.94732 3.36739 8 3.5 8C3.63261 8 3.75979 7.94732 3.85355 7.85355C3.94732 7.75979 4 7.63261 4 7.5V5C4 4.86739 4.05268 4.74021 4.14645 4.64645C4.24021 4.55268 4.36739 4.5 4.5 4.5H5V18C5 18.3978 5.15804 18.7794 5.43934 19.0607C5.72064 19.342 6.10218 19.5 6.5 19.5H17V20C17 20.1326 16.9473 20.2598 16.8536 20.3536C16.7598 20.4473 16.6326 20.5 16.5 20.5H4.5C4.36739 20.5 4.24021 20.4473 4.14645 20.3536C4.05268 20.2598 4 20.1326 4 20V9.5C4 9.36739 3.94732 9.24021 3.85355 9.14645C3.75979 9.05268 3.63261 9 3.5 9C3.36739 9 3.24021 9.05268 3.14645 9.14645C3.05268 9.24021 3 9.36739 3 9.5V20C3 20.3978 3.15804 20.7794 3.43934 21.0607C3.72064 21.342 4.10218 21.5 4.5 21.5H16.5C16.8978 21.5 17.2794 21.342 17.5607 21.0607C17.842 20.7794 18 20.3978 18 20V19.5H18.5C18.8978 19.5 19.2794 19.342 19.5607 19.0607C19.842 18.7794 20 18.3978 20 18V7.775C20.0011 7.58102 19.9636 7.38876 19.8898 7.20937C19.816 7.02998 19.7073 6.86704 19.57 6.73ZM15 3.5L18.44 7H15.5C15.3674 7 15.2402 6.94732 15.1464 6.85355C15.0527 6.75979 15 6.63261 15 6.5V3.5ZM19 18C19 18.1326 18.9473 18.2598 18.8536 18.3536C18.7598 18.4473 18.6326 18.5 18.5 18.5H6.5C6.36739 18.5 6.24021 18.4473 6.14645 18.3536C6.05268 18.2598 6 18.1326 6 18V3C6 2.86739 6.05268 2.74021 6.14645 2.64645C6.24021 2.55268 6.36739 2.5 6.5 2.5H13.83C13.8883 2.50167 13.9458 2.51351 14 2.535V6.5C14 6.89782 14.158 7.27936 14.4393 7.56066C14.7206 7.84196 15.1022 8 15.5 8H19V18Z" fill="#828282"/>
</svg>
