<svg width="24" height="24" viewBox="0 0 24 24" fill="none" xmlns="http://www.w3.org/2000/svg">
<path fill-rule="evenodd" clip-rule="evenodd" d="M15.857 3H18.7969C20.0133 3 21 3.99531 21 5.22316V8.18769C21 9.41462 20.0133 10.4109 18.7969 10.4109H15.857C14.6397 10.4109 13.6529 9.41462 13.6529 8.18769V5.22316C13.6529 3.99531 14.6397 3 15.857 3ZM5.20403 3H8.14304C9.36033 3 10.3471 3.99531 10.3471 5.22316V8.18769C10.3471 9.41462 9.36033 10.4109 8.14304 10.4109H5.20403C3.98674 10.4109 3 9.41462 3 8.18769V5.22316C3 3.99531 3.98674 3 5.20403 3ZM5.20403 13.5891H8.14304C9.36033 13.5891 10.3471 14.5845 10.3471 15.8132V18.7768C10.3471 20.0047 9.36033 21 8.14304 21H5.20403C3.98674 21 3 20.0047 3 18.7768V15.8132C3 14.5845 3.98674 13.5891 5.20403 13.5891ZM15.857 13.5891H18.7969C20.0133 13.5891 21 14.5845 21 15.8132V18.7768C21 20.0047 20.0133 21 18.7969 21H15.857C14.6397 21 13.6529 20.0047 13.6529 18.7768V15.8132C13.6529 14.5845 14.6397 13.5891 15.857 13.5891Z" stroke="#484848" stroke-linecap="round" stroke-linejoin="round"/>
</svg>
