<svg width="24" height="24" viewBox="0 0 24 24" fill="none" xmlns="http://www.w3.org/2000/svg">
<path fill-rule="evenodd" clip-rule="evenodd" d="M16.2855 2H19.5521C20.9036 2 22 3.1059 22 4.47018V7.7641C22 9.12735 20.9036 10.2343 19.5521 10.2343H16.2855C14.933 10.2343 13.8366 9.12735 13.8366 7.7641V4.47018C13.8366 3.1059 14.933 2 16.2855 2ZM4.44892 2H7.71449C9.06703 2 10.1634 3.1059 10.1634 4.47018V7.7641C10.1634 9.12735 9.06703 10.2343 7.71449 10.2343H4.44892C3.09638 10.2343 2 9.12735 2 7.7641V4.47018C2 3.1059 3.09638 2 4.44892 2ZM4.44892 13.7657H7.71449C9.06703 13.7657 10.1634 14.8716 10.1634 16.2369V19.5298C10.1634 20.8941 9.06703 22 7.71449 22H4.44892C3.09638 22 2 20.8941 2 19.5298V16.2369C2 14.8716 3.09638 13.7657 4.44892 13.7657Z" stroke="#1DAEDE" stroke-width="1.4" stroke-linecap="round" stroke-linejoin="round"/>
<path fill-rule="evenodd" clip-rule="evenodd" d="M17 17H15C14.45 17 14 17.448 14 18C14 18.552 14.45 19 15 19H17V21C17 21.552 17.45 22 18 22C18.55 22 19 21.552 19 21V19H21C21.55 19 22 18.552 22 18C22 17.448 21.55 17 21 17H19V15C19 14.448 18.55 14 18 14C17.45 14 17 14.448 17 15V17Z" fill="#1DAEDE"/>
</svg>
