<svg width="20" height="16" viewBox="0 0 20 16" fill="none" xmlns="http://www.w3.org/2000/svg">
<path fill-rule="evenodd" clip-rule="evenodd" d="M20 4.83333C20 3.72867 19.1033 2.83333 18 2.83333H9.55334C9.37668 2.83333 9.20666 2.763 9.08 2.638L7.52999 1.08567C7.15332 0.710668 6.64332 0.5 6.11332 0.5C5.18666 0.5 3.29333 0.5 2 0.5C1.47 0.5 0.960003 0.710668 0.58667 1.08567C0.210003 1.461 0 1.96967 0 2.5C0 5.05467 0 10.612 0 13.1667C0 14.2713 0.896667 15.1667 2 15.1667H18C18.53 15.1667 19.04 14.956 19.4133 14.581C19.79 14.2057 20 13.697 20 13.1667V4.83333ZM18.6667 4.83333V13.1667C18.6667 13.3433 18.5967 13.513 18.47 13.638C18.3467 13.763 18.1767 13.8333 18 13.8333H2C1.63 13.8333 1.33333 13.535 1.33333 13.1667C1.33333 10.612 1.33333 5.05467 1.33333 2.5C1.33333 2.32333 1.40332 2.15367 1.52999 2.02867C1.65332 1.90367 1.82333 1.83333 2 1.83333H6.11332C6.28999 1.83333 6.46 1.90367 6.58667 2.02867L8.13668 3.581C8.51334 3.956 9.02334 4.16667 9.55334 4.16667H18C18.37 4.16667 18.6667 4.465 18.6667 4.83333ZM9.33333 8.16667H8C7.63333 8.16667 7.33333 8.46533 7.33333 8.83333C7.33333 9.20133 7.63333 9.5 8 9.5H9.33333V10.8333C9.33333 11.2013 9.63333 11.5 10 11.5C10.3667 11.5 10.6667 11.2013 10.6667 10.8333V9.5H12C12.3667 9.5 12.6667 9.20133 12.6667 8.83333C12.6667 8.46533 12.3667 8.16667 12 8.16667H10.6667V6.83333C10.6667 6.46533 10.3667 6.16667 10 6.16667C9.63333 6.16667 9.33333 6.46533 9.33333 6.83333V8.16667Z" fill="#1DAEDE"/>
</svg>
