<svg width="24" height="24" viewBox="0 0 24 24" fill="none" xmlns="http://www.w3.org/2000/svg">
<path d="M22 6.42148C22 5.75292 21.7344 5.11175 21.2617 4.639C20.7889 4.16626 20.1478 3.90068 19.4792 3.90068H18.3222V2.50416C18.3222 2.37045 18.269 2.24221 18.1745 2.14766C18.0799 2.05312 17.9517 2 17.818 2C17.6843 2 17.5561 2.05312 17.4615 2.14766C17.367 2.24221 17.3138 2.37045 17.3138 2.50416V3.90068H12.5042V2.50416C12.5042 2.37045 12.451 2.24221 12.3565 2.14766C12.2619 2.05312 12.1337 2 12 2C11.8663 2 11.7381 2.05312 11.6435 2.14766C11.549 2.24221 11.4958 2.37045 11.4958 2.50416V3.90068H6.68616V2.50416C6.68616 2.37045 6.63304 2.24221 6.5385 2.14766C6.44395 2.05312 6.31571 2 6.182 2C6.04829 2 5.92006 2.05312 5.82551 2.14766C5.73096 2.24221 5.67784 2.37045 5.67784 2.50416V3.90068H4.5208C3.85224 3.90068 3.21107 4.16626 2.73832 4.639C2.26558 5.11175 2 5.75292 2 6.42148V18.733C2 19.0641 2.0652 19.3919 2.19188 19.6977C2.31857 20.0036 2.50425 20.2814 2.73832 20.5155C2.9724 20.7496 3.25029 20.9353 3.55613 21.062C3.86197 21.1886 4.18976 21.2538 4.5208 21.2538H19.4792C19.8102 21.2538 20.138 21.1886 20.4439 21.062C20.7497 20.9353 21.0276 20.7496 21.2617 20.5155C21.4958 20.2814 21.6814 20.0036 21.8081 19.6977C21.9348 19.3919 22 19.0641 22 18.733V6.42148ZM20.9917 18.7356C20.9917 19.1367 20.8323 19.5214 20.5487 19.8051C20.265 20.0887 19.8803 20.248 19.4792 20.248H4.5208C4.11966 20.248 3.73496 20.0887 3.45131 19.8051C3.16767 19.5214 3.00832 19.1367 3.00832 18.7356V9.9758H20.9917V18.7356ZM20.9917 8.97H3.00832V6.42148C3.00832 6.02034 3.16767 5.63564 3.45131 5.35199C3.73496 5.06835 4.11966 4.909 4.5208 4.909H5.67784V6.30552C5.67784 6.43923 5.73096 6.56747 5.82551 6.66201C5.92006 6.75656 6.04829 6.80968 6.182 6.80968C6.31571 6.80968 6.44395 6.75656 6.5385 6.66201C6.63304 6.56747 6.68616 6.43923 6.68616 6.30552V4.909H11.4958V6.30552C11.4958 6.43923 11.549 6.56747 11.6435 6.66201C11.7381 6.75656 11.8663 6.80968 12 6.80968C12.1337 6.80968 12.2619 6.75656 12.3565 6.66201C12.451 6.56747 12.5042 6.43923 12.5042 6.30552V4.909H17.3138V6.30552C17.3138 6.43923 17.367 6.56747 17.4615 6.66201C17.5561 6.75656 17.6843 6.80968 17.818 6.80968C17.9517 6.80968 18.0799 6.75656 18.1745 6.66201C18.269 6.56747 18.3222 6.43923 18.3222 6.30552V4.909H19.4792C19.8803 4.909 20.265 5.06835 20.5487 5.35199C20.8323 5.63564 20.9917 6.02034 20.9917 6.42148V8.97Z" fill="#828282"/>
</svg>
