<svg width="16" height="20" viewBox="0 0 16 20" fill="none" xmlns="http://www.w3.org/2000/svg">
<path d="M15.4084 3.81471C15.407 3.78643 15.4031 3.75832 15.3967 3.73074C15.3935 3.71535 15.3895 3.70012 15.3848 3.6851C15.3809 3.67345 15.3761 3.66253 15.3712 3.65137C15.3644 3.63486 15.3579 3.61836 15.3491 3.60258C15.3455 3.59603 15.3406 3.5902 15.3368 3.58389C15.3256 3.56593 15.3154 3.54749 15.3018 3.5305L12.5812 0.178394C12.5361 0.123363 12.4795 0.0789458 12.4152 0.0482999C12.413 0.0470863 12.4106 0.0463582 12.4082 0.0453873C12.3792 0.0318984 12.349 0.0214072 12.3179 0.0140775C12.3133 0.0128639 12.3084 0.0121357 12.3038 0.0111649C12.274 0.00487192 12.2436 0.00145835 12.2131 0.000971011C12.2104 0.000971011 12.2077 0 12.205 0H0.485425C0.356682 0 0.233213 0.0511429 0.142178 0.142178C0.0511429 0.233213 0 0.356682 0 0.485425V19.5146C0 19.6433 0.0511429 19.7668 0.142178 19.8578C0.233213 19.9489 0.356682 20 0.485425 20H14.9249C15.0536 20 15.1771 19.9489 15.2681 19.8578C15.3592 19.7668 15.4103 19.6433 15.4103 19.5146V3.83777C15.4103 3.83 15.4086 3.82248 15.4084 3.81471ZM14.4395 19.0294H0.97085V0.971093H11.9735L14.4395 4.0101V19.0294Z" fill="#828282"/>
<path d="M7.70576 5.42657C5.18422 5.42657 3.13281 7.47798 3.13281 9.99952C3.13281 12.5211 5.18422 14.5725 7.70576 14.5725C10.2273 14.5725 12.2787 12.5211 12.2787 9.99952C12.2787 7.47798 10.2273 5.42657 7.70576 5.42657ZM7.70576 13.6016C5.71964 13.6016 4.10366 11.9859 4.10366 9.99952C4.10366 8.01341 5.71964 6.39742 7.70576 6.39742C9.69212 6.39742 11.3079 8.01341 11.3079 9.99952C11.3079 11.9859 9.69212 13.6016 7.70576 13.6016Z" fill="#828282"/>
<path d="M7.70552 7.55469L5.87183 9.38862C5.82546 9.4334 5.78848 9.48697 5.76304 9.54619C5.7376 9.60541 5.72421 9.66911 5.72365 9.73357C5.72309 9.79802 5.73537 9.86194 5.75978 9.9216C5.78419 9.98126 5.82023 10.0355 5.86581 10.081C5.91139 10.1266 5.96559 10.1627 6.02524 10.1871C6.0849 10.2115 6.14882 10.2238 6.21328 10.2232C6.27773 10.2226 6.34143 10.2092 6.40065 10.1838C6.45988 10.1584 6.51344 10.1214 6.55822 10.075L7.2201 9.41314V11.7577C7.2201 11.8865 7.27124 12.01 7.36227 12.101C7.45331 12.192 7.57678 12.2432 7.70552 12.2432C7.83426 12.2432 7.95773 12.192 8.04877 12.101C8.1398 12.01 8.19095 11.8865 8.19095 11.7577V9.41314L8.85282 10.075C8.94772 10.1699 9.07175 10.2172 9.19602 10.2172C9.32029 10.2172 9.44431 10.1699 9.53921 10.075C9.63022 9.98398 9.68134 9.86054 9.68134 9.73182C9.68134 9.6031 9.63022 9.47966 9.53921 9.38862L7.70552 7.55469Z" fill="#828282"/>
</svg>
