<svg width="24" height="24" viewBox="0 0 24 24" fill="none" xmlns="http://www.w3.org/2000/svg">
<path fill-rule="evenodd" clip-rule="evenodd" d="M6.02474 2.99345C5.80863 2.99345 5.60649 3.07637 5.45572 3.22808L4.14341 4.54049C2.47104 6.21456 2.72497 8.49198 3.23302 10.1078C3.90349 12.2423 5.39484 14.5391 7.43145 16.5765C9.4671 18.6113 11.7612 20.1002 13.8913 20.7687C15.5047 21.275 17.7801 21.5273 19.4559 19.8532L20.7702 18.5416C21.0834 18.2285 21.0833 17.7179 20.7701 17.4039L17.8296 14.4641C17.5156 14.1501 17.0048 14.1501 16.6908 14.4641L15.3785 15.7765C14.7777 16.3771 13.9257 16.5518 12.914 16.2802C10.7672 15.7051 8.28788 13.2293 7.71366 11.086C7.4429 10.0752 7.61842 9.22137 8.22084 8.61896L9.53418 7.3065C9.84814 6.99249 9.84811 6.48187 9.53411 6.16786L6.59349 3.22805C6.4427 3.07635 6.24072 2.99348 6.02474 2.99345ZM16.1856 22C15.3908 22 14.5387 21.8589 13.6382 21.5767C11.3802 20.8684 8.9626 19.3046 6.83253 17.1745C4.70164 15.0436 3.13599 12.6233 2.42508 10.3618C1.59706 7.72458 1.98319 5.50457 3.54439 3.94253L4.85685 2.62918C5.16743 2.31782 5.58272 2.14673 6.02464 2.14673C6.46649 2.1467 6.88196 2.31784 7.19239 2.62918L10.1321 5.56894C10.7769 6.21281 10.7769 7.26067 10.133 7.90542L8.81976 9.21785C8.43796 9.59973 8.34078 10.1545 8.53218 10.8672C9.02181 12.6948 11.3008 14.9712 13.1337 15.4625C13.8456 15.653 14.4002 15.5578 14.7795 15.1776L16.0929 13.8652C16.7369 13.2213 17.7845 13.2213 18.4284 13.8652L21.3682 16.805C22.013 17.4488 22.0129 18.4967 21.3682 19.1405L20.054 20.453C19.0256 21.4796 17.7131 22 16.1856 22Z" fill="#1DAEDE" stroke="#1DAEDE" stroke-width="0.4"/>
<path fill-rule="evenodd" clip-rule="evenodd" d="M16.2104 11.0948C15.9837 11.0948 15.7966 10.9148 15.7878 10.6873C15.7384 9.34747 14.65 8.25907 13.3111 8.20969C13.0776 8.20085 12.8948 8.00506 12.9036 7.7713C12.9117 7.53755 13.1074 7.35502 13.342 7.36383C15.122 7.42904 16.5684 8.8756 16.6337 10.6555C16.6426 10.8893 16.4599 11.086 16.2262 11.0948C16.2209 11.0948 16.2156 11.0948 16.2104 11.0948Z" fill="#1DAEDE" stroke="#1DAEDE" stroke-width="0.4"/>
<path fill-rule="evenodd" clip-rule="evenodd" d="M18.8173 11.923C18.5906 11.923 18.4026 11.743 18.3947 11.5146C18.2767 8.31729 15.6798 5.72064 12.4825 5.60243C12.2488 5.5945 12.0662 5.3978 12.075 5.16408C12.0839 4.93032 12.2779 4.74689 12.5134 4.75659C14.2828 4.82183 15.9462 5.54687 17.1987 6.79934C18.4503 8.05092 19.1752 9.71439 19.2405 11.4837C19.2495 11.7175 19.0668 11.9142 18.833 11.9221C18.8278 11.923 18.8224 11.923 18.8173 11.923Z" fill="#1DAEDE" stroke="#1DAEDE" stroke-width="0.4"/>
<path fill-rule="evenodd" clip-rule="evenodd" d="M21.5739 12.7521C21.3473 12.7521 21.1592 12.573 21.1513 12.3446C20.9617 7.20771 16.7897 3.03578 11.6528 2.84706C11.4192 2.83819 11.2374 2.64154 11.2454 2.40782C11.2543 2.17403 11.45 1.99149 11.6846 2.00031C14.3968 2.09997 16.9467 3.21221 18.866 5.13147C20.7852 7.05073 21.8975 9.60066 21.9971 12.3129C22.0061 12.5466 21.8234 12.7432 21.5897 12.7521C21.5844 12.7521 21.579 12.7521 21.5739 12.7521Z" fill="#1DAEDE" stroke="#1DAEDE" stroke-width="0.4"/>
<path fill-rule="evenodd" clip-rule="evenodd" d="M8.84182 9.02024C8.7307 9.02024 8.61866 8.97707 8.53574 8.88974L3.96425 4.10391C3.80289 3.93457 3.809 3.66731 3.97834 3.50504C4.14702 3.34363 4.41499 3.34979 4.57637 3.51915L9.14804 8.30498C9.30937 8.47429 9.30309 8.74155 9.13461 8.90296C9.05258 8.98145 8.94675 9.02029 8.84182 9.02024Z" fill="#1DAEDE" stroke="#1DAEDE" stroke-width="0.4"/>
<path fill-rule="evenodd" clip-rule="evenodd" d="M20.1837 20.1485C20.0762 20.1485 19.9676 20.1071 19.8847 20.0242L15.2083 15.3477C15.0426 15.1828 15.0425 14.9146 15.2083 14.7488C15.3732 14.5839 15.6413 14.5839 15.8072 14.7488L20.4838 19.4253C20.6487 19.5911 20.6485 19.8593 20.4836 20.0242C20.4009 20.1071 20.2922 20.1485 20.1837 20.1485Z" fill="#1DAEDE" stroke="#1DAEDE" stroke-width="0.4"/>
</svg>
