<svg width="24" height="24" viewBox="0 0 24 24" fill="none" xmlns="http://www.w3.org/2000/svg">
<path fill-rule="evenodd" clip-rule="evenodd" d="M22 12.0005C22 7.95486 19.5808 4.47094 16.1175 2.89726L14.9412 2.44266C14.0103 2.15589 13.0235 2 12 2C6.48535 2 2 6.48535 2 12C2 17.5146 6.48535 22 12 22C13.0236 22 14.0103 21.8441 14.9412 21.5573L16.1175 21.1036C19.5808 19.53 22 16.0461 22 12.0005ZM3.17612 12.0001C3.17612 16.8665 7.13365 20.824 12 20.824C16.8664 20.824 20.8239 16.8665 20.8239 12.0001C20.8239 7.13376 16.8664 3.17623 12 3.17623C7.13365 3.17623 3.17612 7.13376 3.17612 12.0001Z" fill="#828282"/>
<path d="M9.08817 9.08843C7.48374 10.6943 7.48374 13.3061 9.08817 14.9122C10.6926 16.5166 13.3058 16.5166 14.9119 14.9122C15.1413 14.6827 15.5134 14.6827 15.7443 14.9122C15.9737 15.1416 15.9737 15.5137 15.7443 15.7445C14.7119 16.7769 13.356 17.2916 12.0001 17.2916C10.6442 17.2916 9.28827 16.7754 8.25589 15.7445C6.19114 13.6798 6.19114 10.321 8.25589 8.25751C10.3206 6.19422 13.6794 6.19422 15.7429 8.25751C15.9723 8.48693 15.9723 8.85901 15.7429 9.08986C15.5135 9.31928 15.1414 9.31928 14.9105 9.08986C13.3046 7.48543 10.6929 7.48543 9.08682 9.08986L9.08817 9.08843Z" fill="#828282"/>
</svg>
