<svg width="48" height="48" viewBox="0 0 48 48" fill="none" xmlns="http://www.w3.org/2000/svg">
<g clip-path="url(#clip0_224_7270)">
<g filter="url(#filter0_d_224_7270)">
<path d="M24 4C20.0444 4 16.1776 5.17298 12.8886 7.37061C9.59962 9.56824 7.03617 12.6918 5.52242 16.3463C4.00867 20.0009 3.6126 24.0222 4.3843 27.9018C5.15601 31.7814 7.06082 35.3451 9.85787 38.1421C12.6549 40.9392 16.2186 42.844 20.0982 43.6157C23.9778 44.3874 27.9992 43.9913 31.6537 42.4776C35.3082 40.9638 38.4318 38.4004 40.6294 35.1114C42.827 31.8224 44 27.9556 44 24C44 21.3736 43.4827 18.7728 42.4776 16.3463C41.4725 13.9198 39.9993 11.715 38.1421 9.85786C36.285 8.00069 34.0802 6.5275 31.6537 5.52241C29.2272 4.51732 26.6264 4 24 4ZM30.42 27.58C30.6075 27.7659 30.7563 27.9871 30.8578 28.2308C30.9593 28.4746 31.0116 28.736 31.0116 29C31.0116 29.264 30.9593 29.5254 30.8578 29.7692C30.7563 30.0129 30.6075 30.2341 30.42 30.42C30.2341 30.6075 30.0129 30.7562 29.7692 30.8578C29.5254 30.9593 29.264 31.0116 29 31.0116C28.736 31.0116 28.4746 30.9593 28.2309 30.8578C27.9871 30.7562 27.7659 30.6075 27.58 30.42L24 26.82L20.42 30.42C20.2341 30.6075 20.0129 30.7562 19.7692 30.8578C19.5254 30.9593 19.264 31.0116 19 31.0116C18.736 31.0116 18.4746 30.9593 18.2309 30.8578C17.9871 30.7562 17.7659 30.6075 17.58 30.42C17.3926 30.2341 17.2438 30.0129 17.1422 29.7692C17.0407 29.5254 16.9884 29.264 16.9884 29C16.9884 28.736 17.0407 28.4746 17.1422 28.2308C17.2438 27.9871 17.3926 27.7659 17.58 27.58L21.18 24L17.58 20.42C17.2034 20.0434 16.9918 19.5326 16.9918 19C16.9918 18.4674 17.2034 17.9566 17.58 17.58C17.9566 17.2034 18.4674 16.9918 19 16.9918C19.5326 16.9918 20.0434 17.2034 20.42 17.58L24 21.18L27.58 17.58C27.9566 17.2034 28.4674 16.9918 29 16.9918C29.5326 16.9918 30.0434 17.2034 30.42 17.58C30.7966 17.9566 31.0082 18.4674 31.0082 19C31.0082 19.5326 30.7966 20.0434 30.42 20.42L26.82 24L30.42 27.58Z" fill="#BA4040"/>
<path d="M30.42 27.58C30.6075 27.7659 30.7563 27.9871 30.8578 28.2308C30.9593 28.4746 31.0116 28.736 31.0116 29C31.0116 29.264 30.9593 29.5254 30.8578 29.7692C30.7563 30.0129 30.6075 30.2341 30.42 30.42C30.2341 30.6075 30.0129 30.7562 29.7692 30.8578C29.5254 30.9593 29.264 31.0116 29 31.0116C28.736 31.0116 28.4746 30.9593 28.2309 30.8578C27.9871 30.7562 27.7659 30.6075 27.58 30.42L24 26.82L20.42 30.42C20.2341 30.6075 20.0129 30.7562 19.7692 30.8578C19.5254 30.9593 19.264 31.0116 19 31.0116C18.736 31.0116 18.4746 30.9593 18.2309 30.8578C17.9871 30.7562 17.7659 30.6075 17.58 30.42C17.3926 30.2341 17.2438 30.0129 17.1422 29.7692C17.0407 29.5254 16.9884 29.264 16.9884 29C16.9884 28.736 17.0407 28.4746 17.1422 28.2308C17.2438 27.9871 17.3926 27.7659 17.58 27.58L21.18 24L17.58 20.42C17.2034 20.0434 16.9918 19.5326 16.9918 19C16.9918 18.4674 17.2034 17.9566 17.58 17.58C17.9566 17.2034 18.4674 16.9918 19 16.9918C19.5326 16.9918 20.0434 17.2034 20.42 17.58L24 21.18L27.58 17.58C27.9566 17.2034 28.4674 16.9918 29 16.9918C29.5326 16.9918 30.0434 17.2034 30.42 17.58C30.7966 17.9566 31.0082 18.4674 31.0082 19C31.0082 19.5326 30.7966 20.0434 30.42 20.42L26.82 24L30.42 27.58Z" fill="#FFFFFE"/>
</g>
</g>
<defs>
<filter id="filter0_d_224_7270" x="0" y="0" width="48" height="48" filterUnits="userSpaceOnUse" color-interpolation-filters="sRGB">
<feFlood flood-opacity="0" result="BackgroundImageFix"/>
<feColorMatrix in="SourceAlpha" type="matrix" values="0 0 0 0 0 0 0 0 0 0 0 0 0 0 0 0 0 0 127 0" result="hardAlpha"/>
<feOffset/>
<feGaussianBlur stdDeviation="2"/>
<feComposite in2="hardAlpha" operator="out"/>
<feColorMatrix type="matrix" values="0 0 0 0 0 0 0 0 0 0 0 0 0 0 0 0 0 0 0.12 0"/>
<feBlend mode="normal" in2="BackgroundImageFix" result="effect1_dropShadow_224_7270"/>
<feBlend mode="normal" in="SourceGraphic" in2="effect1_dropShadow_224_7270" result="shape"/>
</filter>
<clipPath id="clip0_224_7270">
<rect width="48" height="48" fill="white"/>
</clipPath>
</defs>
</svg>
