<svg width="16" height="20" viewBox="0 0 16 20" fill="none" xmlns="http://www.w3.org/2000/svg">
<path d="M3.4002 20H12.8402C13.9202 20 14.7602 19.12 14.7602 18.08V5.08H15.6002C15.8402 5.08 16.0002 4.92 16.0002 4.68V3.76C16.0002 2.92 15.3202 2.28 14.5202 2.28H11.1202V1.24C11.1202 0.56 10.5602 0 9.8802 0H6.3202C5.6402 0 5.0802 0.56 5.0802 1.24V2.28H1.6802C0.840195 2.28 0.200195 2.96 0.200195 3.76V4.68C0.200195 4.92 0.360195 5.08 0.600195 5.08H1.4402V18.08C1.4402 19.12 2.3202 20 3.4002 20ZM13.9602 18.08C13.9602 18.72 13.4402 19.2 12.8402 19.2H3.4002C2.7602 19.2 2.2802 18.68 2.2802 18.08V5.08H14.0002V18.08H13.9602ZM5.8802 1.24C5.8802 1 6.0802 0.8 6.3202 0.8H9.8802C10.1202 0.8 10.3202 1 10.3202 1.24V2.28H5.9202V1.24H5.8802ZM1.0002 3.76C1.0002 3.36 1.3202 3.08 1.6802 3.08H14.4802C14.8802 3.08 15.1602 3.4 15.1602 3.76V4.28H1.0002V3.76Z" fill="#DE1D1D"/>
<path d="M11.2405 17.28C11.4805 17.28 11.6405 17.12 11.6405 16.88V7.35996C11.6405 7.11996 11.4805 6.95996 11.2405 6.95996C11.0005 6.95996 10.8405 7.11996 10.8405 7.35996V16.88C10.8405 17.12 11.0405 17.28 11.2405 17.28ZM8.12055 17.28C8.36055 17.28 8.52055 17.12 8.52055 16.88V7.35996C8.52055 7.11996 8.36055 6.95996 8.12055 6.95996C7.88055 6.95996 7.72055 7.11996 7.72055 7.35996V16.88C7.72055 17.12 7.88055 17.28 8.12055 17.28ZM4.96055 17.28C5.20055 17.28 5.36055 17.12 5.36055 16.88V7.35996C5.36055 7.11996 5.20055 6.95996 4.96055 6.95996C4.72055 6.95996 4.56055 7.11996 4.56055 7.35996V16.88C4.56055 17.12 4.72055 17.28 4.96055 17.28Z" fill="#DE1D1D"/>
</svg>
