<svg width="24" height="24" viewBox="0 0 24 24" fill="none" xmlns="http://www.w3.org/2000/svg">
<path d="M7.2 22H16.64C17.72 22 18.56 21.12 18.56 20.08V7.08H19.4C19.64 7.08 19.8 6.92 19.8 6.68V5.76C19.8 4.92 19.12 4.28 18.32 4.28H14.92V3.24C14.92 2.56 14.36 2 13.68 2H10.12C9.44 2 8.88 2.56 8.88 3.24V4.28H5.48C4.64 4.28 4 4.96 4 5.76V6.68C4 6.92 4.16 7.08 4.4 7.08H5.24V20.08C5.24 21.12 6.12 22 7.2 22ZM17.76 20.08C17.76 20.72 17.24 21.2 16.64 21.2H7.2C6.56 21.2 6.08 20.68 6.08 20.08V7.08H17.8V20.08H17.76ZM9.68 3.24C9.68 3 9.88 2.8 10.12 2.8H13.68C13.92 2.8 14.12 3 14.12 3.24V4.28H9.72V3.24H9.68ZM4.8 5.76C4.8 5.36 5.12 5.08 5.48 5.08H18.28C18.68 5.08 18.96 5.4 18.96 5.76V6.28H4.8V5.76Z" fill="#828282" stroke="#828282" stroke-width="0.2"/>
<path d="M15.0404 19.2809C15.2804 19.2809 15.4404 19.1209 15.4404 18.8809V9.36094C15.4404 9.12094 15.2804 8.96094 15.0404 8.96094C14.8004 8.96094 14.6404 9.12094 14.6404 9.36094V18.8809C14.6404 19.1209 14.8404 19.2809 15.0404 19.2809ZM11.9204 19.2809C12.1604 19.2809 12.3204 19.1209 12.3204 18.8809V9.36094C12.3204 9.12094 12.1604 8.96094 11.9204 8.96094C11.6804 8.96094 11.5204 9.12094 11.5204 9.36094V18.8809C11.5204 19.1209 11.6804 19.2809 11.9204 19.2809ZM8.76035 19.2809C9.00035 19.2809 9.16035 19.1209 9.16035 18.8809V9.36094C9.16035 9.12094 9.00035 8.96094 8.76035 8.96094C8.52035 8.96094 8.36035 9.12094 8.36035 9.36094V18.8809C8.36035 19.1209 8.52035 19.2809 8.76035 19.2809Z" fill="#828282" stroke="#828282" stroke-width="0.2"/>
</svg>
