<svg width="24" height="24" viewBox="0 0 24 24" fill="none" xmlns="http://www.w3.org/2000/svg">
<path d="M11.8811 19.2516C11.9831 19.3633 12.1279 19.4269 12.2788 19.4269H12.2803C12.4322 19.4266 12.5767 19.3622 12.6784 19.2494L18.3603 12.9661C18.56 12.7455 18.5428 12.4045 18.3222 12.2047C18.1019 12.0057 17.761 12.0222 17.5612 12.2432L12.8178 17.4882V2.53894C12.8178 2.24109 12.5763 2 12.2788 2C11.9813 2 11.7399 2.24109 11.7399 2.53894V17.4986L6.93861 12.241C6.7374 12.0211 6.39715 12.0064 6.17726 12.2065C5.95773 12.4074 5.94228 12.748 6.14277 12.9679L11.8811 19.2516Z" fill="#828282"/>
<path d="M17.9595 20.9221H6.53894C6.24145 20.9221 6 21.1632 6 21.4611C6 21.7589 6.24145 22 6.53894 22H17.9592C18.2567 22 18.4981 21.7589 18.4981 21.4611C18.4981 21.1632 18.257 20.9221 17.9595 20.9221Z" fill="#828282"/>
</svg>
