<svg width="19" height="19" viewBox="0 0 19 19" fill="none" xmlns="http://www.w3.org/2000/svg">
<path fill-rule="evenodd" clip-rule="evenodd" d="M18.4259 4.88807L10.5876 12.7263C10.4996 12.8144 10.3842 12.8611 10.2689 12.865L7.34828 13.1705C7.04983 13.2016 6.79581 12.9492 6.83166 12.6414L7.13946 9.69981C7.15115 9.58761 7.20102 9.48787 7.27504 9.41384L7.27427 9.41306L15.1125 1.57481C16.0663 0.621047 17.3848 0.967009 18.2091 1.79143L18.2099 1.79065C19.0327 2.61273 19.3789 3.93514 18.4259 4.88807ZM17.6879 9.23618H16.7412V16.5749C16.7412 17.3861 16.0749 18.0523 15.2638 18.0523H3.4249C2.61373 18.0523 1.9475 17.3861 1.9475 16.5749V4.73606C1.9475 3.92411 2.61373 3.25866 3.4249 3.25866H10.7636V2.3119H3.4249C2.09009 2.3119 1 3.40202 1 4.736V16.5749C1 17.9097 2.09013 18.999 3.42411 18.999H15.263C16.5978 18.999 17.6871 17.9088 17.6871 16.5741L17.6879 9.23618ZM15.2403 2.78573L17.2141 4.7595L17.7556 4.21795C18.2941 3.6795 18.0034 2.92287 17.5398 2.46001L17.5406 2.45923C17.0793 1.99793 16.3195 1.70651 15.7811 2.24417L15.2403 2.78573ZM16.5447 5.42966L14.5709 3.45589L8.06045 9.96558L7.82981 12.1701L10.0343 11.9394L16.5447 5.42966Z" fill="#828282"/>
</svg>
