<svg width="24" height="24" viewBox="0 0 24 24" fill="none" xmlns="http://www.w3.org/2000/svg">
<path d="M13.7111 19.7778C13.7111 21.0222 12.7333 21.5556 11.4889 21.5556H3.66667C2.42222 21.5556 1.44444 21.0222 1.44444 19.7778V4.22222C1.44444 2.97778 2.42222 2.44444 3.66667 2.44444H11.4889C12.7333 2.44444 13.7111 2.97778 13.7111 4.22222V8.57778H14.1556V4.22222C14.1556 2.97778 13.1778 2 11.9333 2H3.22222C1.97778 2 1 2.97778 1 4.22222V19.7778C1 21.0222 1.97778 22 3.22222 22H11.9333C13.1778 22 14.1556 21.0222 14.1556 19.7778V15.4222H13.7111V19.7778Z" fill="#DE1D1D" stroke="#DE1D1D" stroke-width="0.5"/>
<path d="M17.0446 6.57812L16.689 6.88924L21.6668 11.8226H8.51123V12.267H21.7112L16.8223 17.1115L17.1335 17.4226L22.5112 12.0448L17.0446 6.57812Z" fill="#DE1D1D" stroke="#DE1D1D" stroke-width="0.5"/>
</svg>
