<svg width="24" height="24" viewBox="0 0 24 24" fill="none" xmlns="http://www.w3.org/2000/svg">
<path d="M21.6514 11.0677C21.8179 10.8514 21.9291 10.5979 21.9755 10.329C22.022 10.0601 22.0021 9.78393 21.9178 9.52442C21.8334 9.26491 21.687 9.02987 21.4914 8.83966C21.2957 8.64946 21.0566 8.50981 20.7948 8.43282L16.0137 7.02257C15.8877 6.98711 15.7779 6.90898 15.7031 6.80153L12.8848 2.68461C12.7221 2.47174 12.5126 2.29923 12.2724 2.1805C12.0322 2.06177 11.7679 2 11.5 2C11.2321 2 10.9678 2.06177 10.7276 2.1805C10.4874 2.29923 10.2779 2.47174 10.1152 2.68461L7.30019 6.79821C7.22522 6.90547 7.11552 6.98355 6.98963 7.01926L2.20516 8.43282C1.94337 8.50981 1.70429 8.64946 1.50862 8.83966C1.31296 9.02987 1.16661 9.26491 1.08224 9.52442C0.997881 9.78393 0.978049 10.0601 1.02446 10.329C1.07088 10.5979 1.18214 10.8514 1.34862 11.0677L4.38796 15.0177C4.4686 15.1223 4.51075 15.2515 4.50732 15.3835L4.37027 20.3647C4.36254 20.6375 4.42144 20.9081 4.54186 21.153C4.66229 21.3979 4.84061 21.6098 5.06138 21.7703C5.28215 21.9307 5.53872 22.035 5.80885 22.0739C6.07898 22.1128 6.35454 22.0853 6.61164 21.9938L11.3077 20.3249C11.4321 20.2807 11.5679 20.2807 11.6923 20.3249L16.3884 21.9938C16.6454 22.085 16.9207 22.1123 17.1907 22.0733C17.4606 22.0343 17.717 21.9302 17.9376 21.7699C18.1583 21.6096 18.3366 21.398 18.4572 21.1534C18.5778 20.9088 18.637 20.6384 18.6297 20.3658L18.4927 15.3846C18.4891 15.2522 18.5312 15.1226 18.612 15.0177L21.6514 11.0677ZM17.7356 14.3446C17.501 14.6507 17.3782 15.0278 17.3875 15.4133L17.5245 20.3979C17.5264 20.4906 17.5058 20.5825 17.4644 20.6655C17.4231 20.7485 17.3622 20.8203 17.287 20.8746C17.2118 20.929 17.1245 20.9643 17.0327 20.9775C16.9408 20.9907 16.8472 20.9814 16.7597 20.9505L12.0637 19.2827C11.699 19.1534 11.301 19.1534 10.9363 19.2827L6.24029 20.9527C6.15283 20.9839 6.05908 20.9934 5.96714 20.9803C5.87519 20.9672 5.78781 20.9319 5.71254 20.8775C5.63726 20.8231 5.57635 20.7513 5.53505 20.6681C5.49375 20.5849 5.47331 20.4929 5.47549 20.4001L5.61253 15.4156C5.62167 15.0304 5.49883 14.6537 5.26439 14.3479L2.22506 10.3968C2.1678 10.323 2.12948 10.2363 2.11342 10.1443C2.09737 10.0522 2.10408 9.95769 2.13296 9.86885C2.16185 9.78002 2.21203 9.6996 2.27913 9.63462C2.34624 9.56964 2.42822 9.52206 2.51794 9.49604L7.30019 8.08358C7.67144 7.97477 7.99336 7.74037 8.21089 7.42045L11.0292 3.31016C11.0849 3.23729 11.1566 3.17824 11.2389 3.1376C11.3211 3.09696 11.4116 3.07582 11.5033 3.07582C11.595 3.07582 11.6855 3.09696 11.7678 3.1376C11.85 3.17824 11.9217 3.23729 11.9775 3.31016L14.7946 7.42045C15.0124 7.74011 15.3342 7.97444 15.7053 8.08358L20.4854 9.49272C20.5751 9.51874 20.6571 9.56632 20.7242 9.6313C20.7913 9.69629 20.8415 9.7767 20.8704 9.86554C20.8992 9.95437 20.9059 10.0489 20.8899 10.1409C20.8738 10.233 20.8355 10.3197 20.7783 10.3935L17.7356 14.3446Z" fill="#1DAEDE" stroke="#1DAEDE" stroke-width="0.1"/>
</svg>
