<svg width="18" height="20" viewBox="0 0 18 20" fill="none" xmlns="http://www.w3.org/2000/svg">
<path d="M17.07 5.23L12.4 0.45C12.2605 0.307669 12.094 0.194568 11.9103 0.117303C11.7266 0.0400391 11.5293 0.000161402 11.33 0H4C3.60218 0 3.22064 0.158035 2.93934 0.43934C2.65804 0.720644 2.5 1.10218 2.5 1.5V2H2C1.60218 2 1.22064 2.15804 0.93934 2.43934C0.658035 2.72064 0.5 3.10218 0.5 3.5V6C0.5 6.13261 0.552679 6.25979 0.646447 6.35355C0.740215 6.44732 0.867392 6.5 1 6.5C1.13261 6.5 1.25979 6.44732 1.35355 6.35355C1.44732 6.25979 1.5 6.13261 1.5 6V3.5C1.5 3.36739 1.55268 3.24021 1.64645 3.14645C1.74021 3.05268 1.86739 3 2 3H2.5V16.5C2.5 16.8978 2.65804 17.2794 2.93934 17.5607C3.22064 17.842 3.60218 18 4 18H14.5V18.5C14.5 18.6326 14.4473 18.7598 14.3536 18.8536C14.2598 18.9473 14.1326 19 14 19H2C1.86739 19 1.74021 18.9473 1.64645 18.8536C1.55268 18.7598 1.5 18.6326 1.5 18.5V8C1.5 7.86739 1.44732 7.74021 1.35355 7.64645C1.25979 7.55268 1.13261 7.5 1 7.5C0.867392 7.5 0.740215 7.55268 0.646447 7.64645C0.552679 7.74021 0.5 7.86739 0.5 8V18.5C0.5 18.8978 0.658035 19.2794 0.93934 19.5607C1.22064 19.842 1.60218 20 2 20H14C14.3978 20 14.7794 19.842 15.0607 19.5607C15.342 19.2794 15.5 18.8978 15.5 18.5V18H16C16.3978 18 16.7794 17.842 17.0607 17.5607C17.342 17.2794 17.5 16.8978 17.5 16.5V6.275C17.5011 6.08102 17.4636 5.88876 17.3898 5.70937C17.316 5.52998 17.2073 5.36704 17.07 5.23ZM12.5 2L15.94 5.5H13C12.8674 5.5 12.7402 5.44732 12.6464 5.35355C12.5527 5.25979 12.5 5.13261 12.5 5V2ZM16.5 16.5C16.5 16.6326 16.4473 16.7598 16.3536 16.8536C16.2598 16.9473 16.1326 17 16 17H4C3.86739 17 3.74021 16.9473 3.64645 16.8536C3.55268 16.7598 3.5 16.6326 3.5 16.5V1.5C3.5 1.36739 3.55268 1.24021 3.64645 1.14645C3.74021 1.05268 3.86739 1 4 1H11.33C11.3883 1.00167 11.4458 1.01351 11.5 1.035V5C11.5 5.39782 11.658 5.77936 11.9393 6.06066C12.2206 6.34196 12.6022 6.5 13 6.5H16.5V16.5Z" fill="#40BA9B"/>
</svg>
