<svg width="24" height="25" viewBox="0 0 24 25" fill="none" xmlns="http://www.w3.org/2000/svg">
<path d="M21.7199 7.9631H21.4439V5.3269C21.4439 4.59496 20.8313 4 20.0779 4H3.92002C3.16654 4 2.55395 4.59496 2.55395 5.3269V6.12146H2.278C1.57347 6.12146 1 6.69488 1 7.39946V20.7195C1 21.4241 1.57342 21.9975 2.278 21.9975H21.722C22.4265 21.9975 23 21.4241 23 20.7195V9.2412C23 8.53667 22.4245 7.9631 21.7199 7.9631ZM3.57351 5.3269C3.57351 5.16054 3.73204 5.01963 3.91992 5.01963H20.0778C20.2656 5.01963 20.4242 5.16054 20.4242 5.3269V7.9631H11.228L10.6056 6.79668C10.3805 6.37199 9.95779 6.11951 9.47636 6.11951H3.57387L3.57351 5.3269ZM21.9779 20.7197C21.9779 20.8625 21.8624 20.9761 21.7215 20.9761L2.27752 20.978C2.13464 20.978 2.02113 20.8625 2.02113 20.7216L2.01918 7.39956C2.01918 7.25669 2.13465 7.14318 2.27556 7.14318L9.47769 7.14122C9.57946 7.14122 9.65579 7.18624 9.70471 7.27822L10.4699 8.71474C10.558 8.88109 10.7322 8.98482 10.9201 8.98482H21.7195C21.8624 8.98482 21.9759 9.10029 21.9759 9.2412L21.9779 20.7197Z" fill="#484848"/>
</svg>
