<svg width="24" height="24" viewBox="0 0 24 24" fill="none" xmlns="http://www.w3.org/2000/svg">
<path d="M6.98918 13.8777L6.36263 16.2167L4.07258 16.2651C3.3882 14.9957 3 13.5434 3 12C3 10.5076 3.36295 9.10025 4.00631 7.86102H4.0068L6.04559 8.2348L6.9387 10.2614C6.75177 10.8063 6.64989 11.3913 6.64989 12C6.64996 12.6607 6.76963 13.2937 6.98918 13.8777Z" fill="#FBBB00"/>
<path d="M20.8428 10.3187C20.9461 10.8631 21 11.4253 21 12C21 12.6443 20.9323 13.2728 20.8032 13.8791C20.3651 15.9422 19.2203 17.7437 17.6344 19.0185L17.6339 19.018L15.066 18.887L14.7025 16.6182C15.7548 16.001 16.5772 15.0353 17.0104 13.8791H12.1979V10.3187H17.0806H20.8428Z" fill="#518EF8"/>
<path d="M17.6339 19.0181L17.6344 19.0185C16.092 20.2583 14.1328 21 12 21C8.57257 21 5.59269 19.0843 4.07257 16.2651L6.98917 13.8777C7.74921 15.9061 9.70597 17.3501 12 17.3501C12.986 17.3501 13.9098 17.0835 14.7024 16.6182L17.6339 19.0181Z" fill="#28B446"/>
<path d="M17.7446 5.07197L14.829 7.45894C14.0086 6.94615 13.0388 6.64992 11.9999 6.64992C9.65397 6.64992 7.66061 8.16013 6.93864 10.2613L4.00672 7.86098H4.00623C5.50409 4.97307 8.52155 3 11.9999 3C14.1836 3 16.1859 3.77787 17.7446 5.07197Z" fill="#F14336"/>
</svg>
