<svg width="24" height="24" viewBox="0 0 24 24" fill="none" xmlns="http://www.w3.org/2000/svg">
<path d="M15.6081 6.60824C15.6081 4.61546 13.9926 3 11.9998 3C10.0071 3 8.3916 4.61546 8.3916 6.60824C8.3916 8.60102 10.0071 10.2165 11.9998 10.2165C13.9926 10.2165 15.6081 8.60102 15.6081 6.60824Z" stroke="#828282" stroke-width="1.3"/>
<path d="M17.9803 4.65143C18.373 4.62415 18.7673 4.6745 19.1405 4.79958C19.5138 4.92467 19.8587 5.12205 20.1556 5.38044C20.4527 5.63883 20.6958 5.9532 20.8713 6.3056C21.0467 6.65797 21.1513 7.04145 21.1785 7.43417C21.2057 7.82687 21.1554 8.22112 21.0302 8.59438C20.9053 8.96764 20.7078 9.31261 20.4494 9.60958C20.1911 9.90654 19.8766 10.1497 19.5243 10.3252C19.1719 10.5007 18.7884 10.6051 18.3957 10.6323M6.23076 4.65143C5.83804 4.62415 5.44379 4.6745 5.07056 4.79958C4.6973 4.92467 4.35233 5.12205 4.05534 5.38044C3.75837 5.63883 3.5152 5.9532 3.33971 6.3056C3.16423 6.65797 3.05988 7.04145 3.0326 7.43417C3.00532 7.82687 3.05565 8.22112 3.18074 8.59438C3.30581 8.96764 3.5032 9.31261 3.76161 9.60958C4.02 9.90654 4.33437 10.1497 4.68674 10.3252C5.03911 10.5007 5.42262 10.6051 5.81532 10.6323" stroke="#828282" stroke-width="1.3" stroke-linecap="round" stroke-linejoin="round"/>
<path d="M5.50488 16.6566C5.50488 18.6793 7.14455 20.3189 9.16719 20.3189H14.6095C16.6413 20.3189 18.2884 18.6718 18.2884 16.6401C18.2884 14.1649 15.8934 12.396 13.5277 13.1238L12.9884 13.2898C12.2227 13.5254 11.4034 13.5223 10.6394 13.281L10.2703 13.1644C7.90979 12.4188 5.50488 14.1812 5.50488 16.6566Z" stroke="#828282" stroke-width="1.3" stroke-linejoin="round"/>
<path d="M16.433 19.9076H19.058C20.6829 19.9076 22 18.5904 22 16.9656V16.137C22 14.6109 20.5468 13.5039 19.0754 13.9092L17.6131 14.3121M7.56701 19.9076H4.94198C3.31718 19.9076 2 18.5904 2 16.9656V16.137C2 14.6109 3.45324 13.5039 4.92458 13.9092L6.38687 14.3121" stroke="#828282" stroke-width="1.3" stroke-linejoin="round"/>
</svg>
