<svg width="24" height="24" viewBox="0 0 24 24" fill="none" xmlns="http://www.w3.org/2000/svg">
<path d="M21.6421 3.86255C20.4486 2.67169 18.8315 2.00289 17.1455 2.00289C15.4596 2.00289 13.8424 2.67169 12.649 3.86255L12.2523 4.2593L11.8555 3.86255C10.663 2.67 9.04556 2.00002 7.35905 2C5.67255 1.99998 4.05511 2.66993 2.86255 3.86245C1.67 5.05498 1.00002 6.67241 1 8.35891C0.999981 10.0454 1.66993 11.6629 2.86245 12.8554L11.8335 21.8265C11.8885 21.8815 11.9538 21.9251 12.0256 21.9549C12.0975 21.9847 12.1745 22 12.2523 22C12.33 22 12.407 21.9847 12.4789 21.9549C12.5507 21.9251 12.616 21.8815 12.671 21.8265L21.6421 12.8554C22.8327 11.6619 23.5014 10.0449 23.5014 8.35898C23.5014 6.6731 22.8327 5.05605 21.6421 3.86255ZM20.8046 12.018L12.2523 20.5703L3.6999 12.018C2.72947 11.0475 2.18431 9.73132 2.18433 8.35891C2.18435 6.9865 2.72956 5.67031 3.70001 4.69989C4.67046 3.72946 5.98667 3.1843 7.35908 3.18432C8.73148 3.18434 10.0477 3.72954 11.0181 4.7L11.8336 5.51546C11.8885 5.57047 11.9538 5.6141 12.0257 5.64387C12.0975 5.67364 12.1745 5.68896 12.2523 5.68896C12.3301 5.68896 12.4071 5.67364 12.4789 5.64387C12.5508 5.6141 12.616 5.57047 12.671 5.51546L13.4865 4.7C14.4569 3.72954 15.7731 3.18434 17.1455 3.18432C18.5179 3.1843 19.8341 3.72946 20.8046 4.69989C21.775 5.67031 22.3202 6.9865 22.3202 8.35891C22.3203 9.73132 21.7751 11.0475 20.8047 12.018H20.8046Z" fill="#828282"/>
</svg>
