<svg width="24" height="24" viewBox="0 0 24 24" fill="none" xmlns="http://www.w3.org/2000/svg">
<path d="M9.0076 20.7594V17.5312C9.00758 16.7101 9.67697 16.043 10.5063 16.0375H13.5443C14.3776 16.0375 15.0532 16.7062 15.0532 17.5312V20.7694C15.053 21.4665 15.615 22.0363 16.319 22.0526H18.3443C20.3633 22.0526 22 20.4323 22 18.4335V9.25035C21.9892 8.46403 21.6163 7.72563 20.9873 7.2453L14.0608 1.72137C12.8473 0.759543 11.1223 0.759543 9.90886 1.72137L3.01266 7.25532C2.38132 7.73371 2.00778 8.47333 2 9.26038V18.4335C2 20.4323 3.63671 22.0526 5.6557 22.0526H7.68101C8.40248 22.0526 8.98734 21.4736 8.98734 20.7594" stroke="#1DAEDE" stroke-width="1.6" stroke-linecap="round" stroke-linejoin="round"/>
</svg>
