<svg width="24" height="24" viewBox="0 0 24 24" fill="none" xmlns="http://www.w3.org/2000/svg">
<path d="M24 5H0V19.9748H24V5ZM23.1094 19.0841H0.890648V5.89065H23.1094V19.0841ZM16.5779 12.3775L15.7496 11.5967L16.8778 11.4305L17.3825 10.4092L17.8872 11.4305L19.0153 11.5967L18.1989 12.3924L18.3919 13.5146L17.3825 12.9861L16.3731 13.5146L16.5779 12.3775ZM17.3944 16.0886C18.1943 16.0862 18.9756 15.8468 19.6395 15.4006C20.3035 14.9544 20.8203 14.3215 21.1247 13.5817C21.429 12.8419 21.5073 12.0285 21.3496 11.2443C21.1919 10.46 20.8052 9.74013 20.2386 9.17552C19.6719 8.61091 18.9506 8.22693 18.1657 8.07209C17.3809 7.91725 16.5678 7.9985 15.8292 8.30557C15.0905 8.61264 14.4594 9.13176 14.0157 9.79734C13.5719 10.4629 13.3354 11.2451 13.336 12.045C13.3375 13.1175 13.7645 14.1455 14.5231 14.9036C15.2817 15.6616 16.31 16.0878 17.3825 16.0886H17.3944ZM17.3944 8.88916C18.018 8.89151 18.627 9.07859 19.1444 9.42679C19.6618 9.77498 20.0645 10.2687 20.3015 10.8455C20.5386 11.4224 20.5994 12.0566 20.4763 12.668C20.3531 13.2793 20.0516 13.8406 19.6098 14.2807C19.168 14.7209 18.6057 15.0203 17.9938 15.1411C17.382 15.2619 16.748 15.1987 16.1721 14.9595C15.5961 14.7203 15.1039 14.3158 14.7577 13.7971C14.4114 13.2784 14.2266 12.6687 14.2266 12.045C14.2274 11.2083 14.5602 10.406 15.1518 9.81436C15.7435 9.22269 16.5457 8.88995 17.3825 8.88916H17.3944ZM6.34438 13.3424C6.44736 13.3614 6.55151 13.3733 6.65611 13.378C6.76236 13.3786 6.86851 13.3717 6.97378 13.3572C7.7599 13.438 8.48829 13.8069 9.01843 14.393C9.54857 14.979 9.8429 15.7407 9.84463 16.5309H10.7353C10.7339 15.742 10.5042 14.9703 10.0738 14.3091C9.64333 13.648 9.03065 13.1256 8.30975 12.805C8.75125 12.4604 9.07415 11.9865 9.23339 11.4495C9.39263 10.9126 9.38026 10.3393 9.19802 9.80963C9.01578 9.28002 8.67275 8.8205 8.2168 8.4952C7.76085 8.16991 7.21472 7.99506 6.65463 7.99506C6.09453 7.99506 5.5484 8.16991 5.09245 8.4952C4.6365 8.8205 4.29348 9.28002 4.11123 9.80963C3.92899 10.3393 3.91663 10.9126 4.07587 11.4495C4.23511 11.9865 4.558 12.4604 4.99951 12.805C4.27938 13.1263 3.66753 13.649 3.2377 14.31C2.80787 14.9711 2.5784 15.7424 2.57694 16.5309H3.46759C3.46851 15.7414 3.76178 14.9802 4.29083 14.3941C4.81987 13.8081 5.5472 13.4387 6.33251 13.3572L6.34438 13.3424ZM4.85997 10.6705C4.86073 10.3267 4.95994 9.9904 5.14587 9.70128C5.3318 9.41217 5.59666 9.18237 5.90911 9.03908C6.22155 8.89579 6.56851 8.84501 6.90892 8.89275C7.24933 8.94048 7.56894 9.08474 7.82992 9.30844C8.09091 9.53214 8.28234 9.82592 8.38158 10.155C8.48082 10.4841 8.4837 10.8348 8.38988 11.1655C8.29606 11.4961 8.10947 11.793 7.8522 12.021C7.59492 12.249 7.27773 12.3984 6.93815 12.4518C6.84612 12.4518 6.75705 12.4518 6.66502 12.4518C6.57298 12.4518 6.48095 12.4518 6.39189 12.4518C5.96763 12.3889 5.57971 12.1768 5.29783 11.8535C5.01594 11.5303 4.85859 11.1171 4.85403 10.6883L4.85997 10.6705Z" fill="#828282"/>
</svg>
