<svg width="24" height="24" viewBox="0 0 24 24" fill="none" xmlns="http://www.w3.org/2000/svg">
<path fill-rule="evenodd" clip-rule="evenodd" d="M22 9.33333C22 8.22867 21.1033 7.33333 20 7.33333H11.5533C11.3767 7.33333 11.2067 7.263 11.08 7.138L9.52999 5.58567C9.15332 5.21067 8.64332 5 8.11332 5C7.18666 5 5.29333 5 4 5C3.47 5 2.96 5.21067 2.58667 5.58567C2.21 5.961 2 6.46967 2 7C2 9.55467 2 15.112 2 17.6667C2 18.7713 2.89667 19.6667 4 19.6667H20C20.53 19.6667 21.04 19.456 21.4133 19.081C21.79 18.7057 22 18.197 22 17.6667V9.33333ZM20.6667 9.33333V17.6667C20.6667 17.8433 20.5967 18.013 20.47 18.138C20.3467 18.263 20.1767 18.3333 20 18.3333H4C3.63 18.3333 3.33333 18.035 3.33333 17.6667C3.33333 15.112 3.33333 9.55467 3.33333 7C3.33333 6.82333 3.40332 6.65367 3.52999 6.52867C3.65332 6.40367 3.82333 6.33333 4 6.33333H8.11332C8.28999 6.33333 8.46 6.40367 8.58667 6.52867L10.1367 8.081C10.5133 8.456 11.0233 8.66667 11.5533 8.66667H20C20.37 8.66667 20.6667 8.965 20.6667 9.33333Z" fill="#828282"/>
<path fill-rule="evenodd" clip-rule="evenodd" d="M12.5541 11.1255C12.3867 11.2929 12.3867 11.5643 12.5541 11.7317L13.5368 12.7143H9.42857C9.19188 12.7143 9 12.9062 9 13.1429C9 13.3795 9.19188 13.5714 9.42857 13.5714H13.5368L12.5541 14.5541C12.3867 14.7215 12.3867 14.9928 12.5541 15.1602C12.7215 15.3275 12.9928 15.3275 13.1602 15.1602L14.8745 13.4459C15.0418 13.2785 15.0418 13.0072 14.8745 12.8398L13.1602 11.1255C12.9928 10.9582 12.7215 10.9582 12.5541 11.1255Z" fill="#828282"/>
</svg>
