<svg width="20" height="15" viewBox="0 0 20 15" fill="none" xmlns="http://www.w3.org/2000/svg">
<path fill-rule="evenodd" clip-rule="evenodd" d="M20 4.33333C20 3.22867 19.1033 2.33333 18 2.33333H9.55334C9.37668 2.33333 9.20666 2.263 9.08 2.138L7.52999 0.585668C7.15332 0.210668 6.64332 0 6.11332 0C5.18666 0 3.29333 0 2 0C1.47 0 0.960003 0.210668 0.58667 0.585668C0.210003 0.961001 0 1.46967 0 2C0 4.55467 0 10.112 0 12.6667C0 13.7713 0.896667 14.6667 2 14.6667H18C18.53 14.6667 19.04 14.456 19.4133 14.081C19.79 13.7057 20 13.197 20 12.6667V4.33333ZM18.6667 4.33333V12.6667C18.6667 12.8433 18.5967 13.013 18.47 13.138C18.3467 13.263 18.1767 13.3333 18 13.3333H2C1.63 13.3333 1.33333 13.035 1.33333 12.6667C1.33333 10.112 1.33333 4.55467 1.33333 2C1.33333 1.82333 1.40332 1.65367 1.52999 1.52867C1.65332 1.40367 1.82333 1.33333 2 1.33333H6.11332C6.28999 1.33333 6.46 1.40367 6.58667 1.52867L8.13668 3.081C8.51334 3.456 9.02334 3.66667 9.55334 3.66667H18C18.37 3.66667 18.6667 3.965 18.6667 4.33333ZM9.33333 7.66667H8C7.63333 7.66667 7.33333 7.96533 7.33333 8.33333C7.33333 8.70133 7.63333 9 8 9H9.33333V10.3333C9.33333 10.7013 9.63333 11 10 11C10.3667 11 10.6667 10.7013 10.6667 10.3333V9H12C12.3667 9 12.6667 8.70133 12.6667 8.33333C12.6667 7.96533 12.3667 7.66667 12 7.66667H10.6667V6.33333C10.6667 5.96533 10.3667 5.66667 10 5.66667C9.63333 5.66667 9.33333 5.96533 9.33333 6.33333V7.66667Z" fill="#828282"/>
</svg>
