<svg width="135" height="130" viewBox="0 0 135 130" fill="none" xmlns="http://www.w3.org/2000/svg">
<path d="M52.276 30.2249L37.6171 11.6904C36.7847 10.6869 35.3513 10.5204 34.334 11.3112C33.3628 12.102 33.1775 13.5586 33.9636 14.5575L48.6688 33.0966C49.455 34.0955 50.8883 34.2665 51.9056 33.4712C52.8768 32.6804 53.0621 31.2237 52.276 30.2249Z" fill="#828282" fill-opacity="0.3"/>
<path d="M69.3396 24.8328V2.31218C69.3396 1.03586 68.3222 0 67.0274 0C65.7788 0 64.7152 1.03586 64.7152 2.31218V24.8328C64.7152 26.1045 65.7788 27.145 67.0274 27.145C68.3222 27.145 69.3396 26.1045 69.3396 24.8328Z" fill="#828282" fill-opacity="0.3"/>
<path fill-rule="evenodd" clip-rule="evenodd" d="M67.0274 55.8947L112.3 37.6423L98.427 32.0469C97.2247 31.5706 96.6696 30.2249 97.1321 29.041C97.6408 27.8572 98.9825 27.2838 100.139 27.7601L119.098 35.4041C119.653 35.5429 120.115 35.862 120.439 36.3521L133.712 56.0057C134.081 56.5837 134.219 57.3098 133.988 57.9757C133.803 58.6416 133.295 59.1826 132.648 59.4416L120.763 64.2371V106.943C120.763 107.886 120.208 108.733 119.329 109.089L67.9069 129.834C67.7219 129.903 67.5365 129.949 67.3977 129.977C67.0278 130.028 66.6579 129.996 66.2879 129.866L66.149 129.829L14.7718 109.089C13.8932 108.733 13.2929 107.886 13.2929 106.943V64.2324L1.45422 59.4416C0.806805 59.1826 0.297944 58.6416 0.11297 57.9757C-0.118248 57.3098 0.0207535 56.5837 0.390703 56.0057L13.662 36.3521C13.9858 35.862 14.4484 35.5429 15.0033 35.4041L33.8248 27.8109C34.9809 27.3346 36.3677 27.9081 36.8302 29.0919C37.2926 30.2711 36.7387 31.6214 35.5363 32.0977L21.801 37.6423L67.0274 55.8947ZM55.6979 79.3865L64.7152 66.0128V124.261L17.9172 105.385V66.1007L52.9229 80.2374C53.9402 80.6489 55.0968 80.2929 55.6979 79.3865ZM69.3396 124.261V65.999L78.4032 79.3865C79.0043 80.2929 80.1609 80.6489 81.1782 80.2374L116.139 66.1053V105.385L69.3396 124.261ZM70.542 59.474L117.664 40.4678L128.3 56.223L81.1782 75.2523C81.1782 75.2523 73.8253 64.3619 70.542 59.474ZM5.80085 56.223C5.80085 56.223 13.57 44.7037 16.4371 40.4725L63.5591 59.4786L52.9229 75.2523L5.80085 56.223Z" fill="#828282" fill-opacity="0.5"/>
<path d="M85.4323 33.0966L100.139 14.5575C100.925 13.5586 100.739 12.102 99.7683 11.3112C98.7509 10.5204 97.2713 10.6869 96.4852 11.6904L81.8251 30.2249C81.039 31.2237 81.1781 32.6804 82.1955 33.4712C83.2128 34.2665 84.6462 34.0955 85.4323 33.0966Z" fill="#828282" fill-opacity="0.3"/>
</svg>
