<svg width="24" height="24" viewBox="0 0 24 24" fill="none" xmlns="http://www.w3.org/2000/svg">
  <path fill-rule="evenodd" clip-rule="evenodd" d="M18.7697 8.91138C18.7697 6.0396 16.9548 3.57339 14.4148 2.60239C13.9478 1.75916 13.0492 1.19141 12.0195 1.19141C10.9912 1.19141 10.0936 1.75767 9.6261 2.59908C7.08119 3.56629 5.26968 6.02976 5.26968 8.91138V11.8014C5.26968 12.016 5.22111 12.33 5.12826 12.6645C5.03569 12.998 4.91574 13.2919 4.80623 13.4761L4.80547 13.4773L3.65716 15.3845C3.19612 16.1507 3.0998 17.0106 3.3826 17.7743C3.66507 18.5372 4.29683 19.1267 5.13923 19.4118L5.14202 19.4127C6.23057 19.7764 7.34009 20.0514 8.46035 20.2378C8.64729 20.8001 8.96308 21.3057 9.36928 21.7119C10.0438 22.3863 10.9921 22.8115 12.0196 22.8115C13.6741 22.8115 15.0854 21.7286 15.5806 20.2358C16.6965 20.0496 17.8018 19.7754 18.8862 19.4131C20.5545 18.8608 21.2784 16.8948 20.3728 15.3855L19.2262 13.4811C19.1191 13.2938 19.0015 12.9987 18.9105 12.6668C18.8183 12.3307 18.7697 12.0162 18.7697 11.8014V8.91138ZM6.76968 8.91138C6.76968 6.56821 8.3111 4.57964 10.4336 3.90599C11.1747 3.69871 11.9729 3.64016 12.8165 3.74561L12.8193 3.74596C13.0666 3.77593 13.311 3.82594 13.5533 3.89161C15.698 4.55227 17.2697 6.55846 17.2697 8.91138V11.8014C17.2697 12.1965 17.351 12.652 17.4639 13.0635C17.577 13.4758 17.7379 13.9032 17.93 14.2362L17.9372 14.2482L19.0866 16.1572C19.5003 16.8476 19.165 17.7411 18.4143 17.9893L18.412 17.99C14.2568 19.3783 9.77413 19.3785 5.61879 17.9905C5.16203 17.8355 4.89919 17.5503 4.78926 17.2534C4.67958 16.9572 4.69335 16.5719 4.94221 16.1582L6.09221 14.2482L6.09389 14.2454C6.29418 13.9095 6.45889 13.479 6.5736 13.0657C6.68826 12.6527 6.76968 12.1967 6.76968 11.8014V8.91138ZM13.7783 20.4594C12.6074 20.5551 11.4307 20.5554 10.2598 20.4602C10.3129 20.5272 10.3698 20.591 10.4299 20.6512C10.8355 21.0567 11.4071 21.3115 12.0196 21.3115C12.7287 21.3115 13.3649 20.9776 13.7783 20.4594Z" fill="#1DAEDE"/>
  <!-- <circle style="animation: pulsate 1.5s infinite;" cx="18" cy="4" r="4" fill="#DE1D1D"/> -->
</svg>

