<svg width="24" height="24" viewBox="0 0 24 24" fill="none" xmlns="http://www.w3.org/2000/svg">
<path d="M20.3366 4.7219L12.3262 2.01266C12.2765 1.99578 12.2226 1.99578 12.1728 2.01266L4.16245 4.7219C4.11477 4.73804 4.07341 4.76881 4.04424 4.80982C4.01508 4.85084 3.9996 4.90001 4.00001 4.95034C4.00208 5.19967 4.00379 5.44862 4.00512 5.69721C4.02734 9.22909 4.04956 12.565 5.06819 15.4235C5.5647 16.8838 6.39646 18.2075 7.49678 19.2883C8.70185 20.4598 10.2318 21.3429 12.1742 21.9878C12.2231 22.0041 12.2759 22.0041 12.3248 21.9878C14.2672 21.3434 15.7972 20.4598 17.002 19.2883C18.1024 18.2077 18.9342 16.8843 19.4308 15.4242C20.4503 12.565 20.4715 9.22909 20.4937 5.69721C20.4953 5.44877 20.497 5.19981 20.4988 4.95034C20.4992 4.90004 20.4838 4.85089 20.4546 4.80987C20.4255 4.76886 20.3842 4.73808 20.3366 4.7219ZM20.0159 5.69409C19.9728 12.4939 19.9324 18.9159 12.2495 21.5082C4.56666 18.9161 4.52621 12.4932 4.4831 5.69409C4.48192 5.50299 4.48066 5.31144 4.47933 5.11945L12.2495 2.49131L20.0197 5.11945C20.0184 5.31144 20.0171 5.50299 20.0159 5.69409ZM11.6426 11.8872L11.5178 13.74C11.5155 13.7727 11.5201 13.8055 11.531 13.8363C11.542 13.8672 11.5592 13.8955 11.5816 13.9194C11.6039 13.9433 11.631 13.9624 11.661 13.9754C11.691 13.9884 11.7234 13.9952 11.7562 13.9952H12.7428C12.7756 13.9952 12.808 13.9884 12.838 13.9754C12.8681 13.9624 12.8951 13.9433 12.9175 13.9194C12.9399 13.8955 12.9571 13.8672 12.9681 13.8364C12.9791 13.8055 12.9837 13.7727 12.9815 13.74L12.8564 11.8872C12.9887 11.7651 13.0811 11.6059 13.1215 11.4305C13.1619 11.255 13.1485 11.0715 13.083 10.9038C13.0174 10.7361 12.9028 10.5921 12.7541 10.4906C12.6054 10.389 12.4296 10.3347 12.2495 10.3347C12.0695 10.3347 11.8936 10.389 11.7449 10.4906C11.5962 10.5921 11.4816 10.7361 11.4161 10.9038C11.3505 11.0715 11.3371 11.255 11.3775 11.4305C11.4179 11.6059 11.5103 11.7651 11.6426 11.8872ZM12.2495 10.8124C12.3391 10.8125 12.4264 10.8415 12.4982 10.8951C12.5701 10.9487 12.6227 11.024 12.6484 11.1099C12.6741 11.1958 12.6714 11.2876 12.6407 11.3718C12.61 11.4561 12.553 11.5282 12.4782 11.5775C12.4427 11.6007 12.4141 11.6329 12.3953 11.6708C12.3764 11.7087 12.368 11.751 12.3708 11.7932L12.4873 13.5165H12.0117L12.1282 11.7932C12.131 11.751 12.1226 11.7088 12.1038 11.6708C12.085 11.6329 12.0564 11.6007 12.0211 11.5775C11.9462 11.5282 11.8892 11.4561 11.8586 11.3719C11.8279 11.2877 11.8252 11.1958 11.8508 11.11C11.8765 11.0241 11.9291 10.9488 12.0009 10.8952C12.0727 10.8416 12.1599 10.8125 12.2495 10.8124ZM9.33294 8.08313V8.84043H8.40519C8.37382 8.84043 8.34276 8.84661 8.31378 8.85862C8.2848 8.87062 8.25846 8.88822 8.23628 8.9104C8.2141 8.93258 8.1965 8.95892 8.1845 8.9879C8.17249 9.01688 8.16631 9.04795 8.16631 9.07932V15.25C8.16643 15.3133 8.19165 15.3739 8.23644 15.4186C8.28122 15.4633 8.34192 15.4884 8.40519 15.4884H16.0938C16.1252 15.4884 16.1563 15.4822 16.1853 15.4702C16.2143 15.4582 16.2406 15.4406 16.2628 15.4184C16.285 15.3962 16.3026 15.3698 16.3146 15.3408C16.3266 15.3118 16.3327 15.2807 16.3327 15.2493V9.07932C16.3327 9.01596 16.3075 8.9552 16.2627 8.9104C16.2179 8.8656 16.1572 8.84043 16.0938 8.84043H9.81093V8.08313C9.81034 7.54886 9.98534 7.02921 10.309 6.60414C10.6327 6.17906 11.087 5.87213 11.6022 5.73056C12.1174 5.58899 12.6648 5.62063 13.1602 5.82062C13.6556 6.02061 14.0716 6.37785 14.3441 6.83739C14.3594 6.86576 14.3803 6.89073 14.4055 6.91081C14.4307 6.93089 14.4597 6.94566 14.4908 6.95424C14.5219 6.96281 14.5544 6.965 14.5863 6.96069C14.6182 6.95638 14.649 6.94564 14.6767 6.92914C14.7044 6.91263 14.7284 6.8907 14.7474 6.86465C14.7664 6.8386 14.7799 6.80898 14.7871 6.77757C14.7944 6.74616 14.7952 6.71361 14.7895 6.68188C14.7838 6.65016 14.7718 6.61991 14.7541 6.59295C14.4277 6.04408 13.9301 5.61757 13.3377 5.37898C12.7454 5.14039 12.0911 5.10291 11.4754 5.2723C10.8597 5.4417 10.3166 5.8086 9.92967 6.31661C9.54273 6.82462 9.33331 7.44565 9.33361 8.08424L9.33294 8.08313ZM15.8541 15.0109H8.64496V9.31842H15.8541V15.0109Z" fill="#828282" stroke="#828282" stroke-width="0.3"/>
</svg>
