<svg width="25" height="24" viewBox="0 0 25 24" fill="none" xmlns="http://www.w3.org/2000/svg">
<path d="M17.8184 21.9969C17.7967 21.9969 17.7749 21.9953 17.7531 21.9907C9.6464 20.2393 4.35029 14.9479 2.01098 6.25944C1.98143 6.15212 2.01254 6.03702 2.09187 5.95925L5.96012 2.09099C6.08144 1.96967 6.27898 1.96967 6.4003 2.09099L11.46 7.15068C11.5813 7.272 11.5813 7.46953 11.46 7.59085L8.3632 10.6876C9.33688 13.1918 11.0354 14.895 13.4182 15.7504L16.5197 12.6505C16.641 12.5292 16.8385 12.5292 16.9599 12.6505L21.9091 17.5998C22.0304 17.7211 22.0304 17.9187 21.9091 18.04L18.0408 21.9082C17.9817 21.9673 17.9024 22 17.8215 22L17.8184 21.9969ZM2.65958 6.27033C4.93979 14.5528 10.0057 19.6234 17.7204 21.3452L21.2496 17.816L16.7405 13.3069L13.7215 16.3259C13.6375 16.4099 13.5131 16.4379 13.4027 16.4006C10.6792 15.4829 8.76449 13.5698 7.71149 10.7141C7.6695 10.6005 7.6975 10.473 7.78304 10.3859L10.8021 7.36688L6.18254 2.74737L2.66114 6.26877L2.65958 6.27033Z" fill="#828282" stroke="#828282" stroke-width="0.5"/>
</svg>
