<svg width="24" height="24" viewBox="0 0 24 24" fill="none" xmlns="http://www.w3.org/2000/svg">
<path d="M19.7334 6.41471C19.7204 6.39132 19.71 6.36534 19.6892 6.34455L15.9475 2.13772C15.9449 2.13512 15.9397 2.13252 15.9371 2.12992C15.9085 2.10134 15.8748 2.07795 15.8384 2.05976C15.8254 2.05197 15.815 2.04157 15.802 2.03638C15.7526 2.01559 15.6955 2 15.6383 2H6.4607C5.10433 2 4 3.10433 4 4.4607V19.5393C4 20.8957 5.10433 22 6.4607 22H17.3351C18.6914 22 19.7958 20.8957 19.7958 19.5393V6.61479C19.7958 6.56282 19.7854 6.51085 19.7646 6.46148C19.7568 6.44589 19.7438 6.4303 19.7334 6.41471ZM16.0514 3.48889L18.4706 6.20683H16.0514V3.48889ZM17.3325 21.1815H6.4607C5.55645 21.1815 4.8185 20.4461 4.8185 19.5393V4.4607C4.8185 3.55645 5.55385 2.8185 6.4607 2.8185H15.2304V6.61479C15.2304 6.84085 15.4148 7.02533 15.6409 7.02533H18.9747V19.5393C18.9747 20.4461 18.2393 21.1815 17.3325 21.1815Z" fill="#828282"/>
<path d="M12.0917 9.56141C11.4135 9.56141 10.7561 9.65755 10.1429 9.83165L9.22568 8.91441C9.06457 8.7533 8.80473 8.7533 8.64623 8.91441C8.48513 9.07551 8.48513 9.33535 8.64623 9.49385L9.29323 10.1409C8.27725 10.593 7.45096 11.2842 6.96505 12.1468C6.92868 12.2118 6.91309 12.2794 6.91309 12.3495C6.91309 12.4171 6.92868 12.4872 6.96505 12.5522C7.84852 14.119 9.86229 15.1324 12.0943 15.1324C12.7647 15.1324 13.4143 15.0389 14.0198 14.87L14.9604 15.8106C15.0409 15.8912 15.1449 15.9301 15.2514 15.9301C15.3579 15.9301 15.4619 15.8912 15.5424 15.8106C15.7035 15.6495 15.7035 15.3897 15.5424 15.2312L14.8772 14.566C15.901 14.1164 16.7377 13.4201 17.2262 12.5522C17.26 12.4898 17.2782 12.4197 17.2782 12.3495C17.2782 12.2794 17.26 12.2092 17.2262 12.1468C16.3349 10.5748 14.3238 9.56141 12.0917 9.56141ZM12.0891 14.3113C10.2495 14.3113 8.59686 13.5474 7.79915 12.3495C8.26166 11.6557 9.0152 11.1127 9.92205 10.7749L10.4911 11.3439C10.3066 11.6349 10.1949 11.9779 10.1949 12.3495C10.1949 13.3941 11.0446 14.2438 12.0891 14.2438C12.4581 14.2438 12.8011 14.132 13.0947 13.9501L13.3338 14.1892C12.9362 14.2645 12.5179 14.3113 12.0891 14.3113ZM13.0791 12.7679L11.6708 11.3595C11.8007 11.3049 11.9436 11.2738 12.0917 11.2738C12.6842 11.2738 13.1649 11.7545 13.1649 12.3469C13.1649 12.495 13.1337 12.6379 13.0791 12.7679ZM12.4919 13.3421C12.3672 13.3915 12.2346 13.4201 12.0917 13.4201C11.4993 13.4201 11.0186 12.9394 11.0186 12.3469C11.0186 12.204 11.0472 12.0715 11.0965 11.9468L12.4919 13.3421ZM14.2406 13.9293L13.682 13.3707C13.8742 13.0745 13.986 12.7237 13.986 12.3469C13.986 11.3023 13.1363 10.4527 12.0917 10.4527C11.715 10.4527 11.3642 10.567 11.068 10.7567L10.8211 10.5098C11.2291 10.4267 11.6526 10.3825 12.0917 10.3825C13.9314 10.3825 15.584 11.1464 16.3817 12.3443C15.9166 13.0459 15.1553 13.5916 14.2406 13.9293Z" fill="#828282"/>
</svg>
