<svg width="24" height="24" viewBox="0 0 24 24" fill="none" xmlns="http://www.w3.org/2000/svg">
<path fill-rule="evenodd" clip-rule="evenodd" d="M10.1689 0H22.9025C22.9688 0 23.0324 0.0263415 23.0793 0.0732297C23.1262 0.120118 23.1525 0.183712 23.1525 0.250022V17.7065C23.1525 17.7729 23.1262 17.8364 23.0793 17.8833C23.0324 17.9302 22.9688 17.9566 22.9025 17.9566H19.9948L20.6098 19.2067C20.6393 19.266 20.644 19.3347 20.6229 19.3975C20.6018 19.4603 20.5566 19.5122 20.4973 19.5417C11.5426 23.96 11.4703 24.004 11.4637 23.9957C11.4633 23.9952 11.4631 23.9946 11.4615 23.9946C11.4544 23.9958 11.4495 23.9973 11.4444 23.9984C11.3853 24.0116 11.3145 23.9724 7.68368 22.7445C7.65227 22.7339 7.62327 22.7172 7.59837 22.6953C7.57348 22.6734 7.55318 22.6468 7.53867 22.617L6.48608 20.4843L5.90103 20.5493C5.83543 20.5563 5.76972 20.5371 5.7182 20.4959C5.66668 20.4547 5.63355 20.3948 5.626 20.3293L5.40098 18.2841L1.0256 9.41832C1.0111 9.38878 1.00256 9.35667 1.00049 9.32383C0.998425 9.29098 1.00286 9.25805 1.01355 9.22693C1.02423 9.1958 1.04096 9.16709 1.06276 9.14244C1.08457 9.11779 1.11102 9.09769 1.14061 9.08329L4.21838 7.56316L3.71834 2.99526C3.71487 2.96259 3.71788 2.92955 3.72719 2.89805C3.7365 2.86654 3.75193 2.83717 3.7726 2.81163C3.79326 2.78609 3.81876 2.76487 3.84763 2.74919C3.8765 2.73351 3.90818 2.72367 3.94086 2.72024L9.91888 2.06268V0.250022C9.91888 0.183712 9.94522 0.120118 9.99211 0.0732297C10.039 0.0263415 10.1026 0 10.1689 0ZM4.26839 8.0907L1.57565 9.42082L5.24097 16.8265L4.26839 8.0907ZM10.4264 21.1943L11.519 23.407L20.0523 19.1892C19.3222 17.7108 19.3129 17.6911 19.3043 17.6731C19.2954 17.6543 19.2874 17.6373 18.4596 15.9614C18.5696 16.9673 18.594 17.1926 18.6187 17.4178C18.6434 17.6432 18.6683 17.8686 18.7796 18.8766C18.7835 18.9093 18.7808 18.9424 18.7718 18.9741C18.7628 19.0057 18.7477 19.0353 18.7272 19.0611C18.7068 19.0869 18.6815 19.1084 18.6527 19.1243C18.624 19.1403 18.5923 19.1504 18.5596 19.1542L7.01613 20.4218L7.8787 22.1719L10.0914 21.0793C10.1209 21.0648 10.153 21.0563 10.1859 21.0542C10.2187 21.0522 10.2517 21.0566 10.2828 21.0673C10.3139 21.078 10.3426 21.0947 10.3673 21.1165C10.3919 21.1383 10.412 21.1648 10.4264 21.1943ZM8.41375 22.4645L10.914 23.312L10.0864 21.6394L8.41375 22.4645ZM19.7472 17.449H22.6525V0.500044H10.4189V2.00017L16.597 1.32762C16.6298 1.3238 16.6631 1.32654 16.6949 1.33569C16.7267 1.34484 16.7564 1.36021 16.7822 1.38091C16.808 1.4016 16.8295 1.42722 16.8453 1.45627C16.8611 1.48532 16.8711 1.51722 16.8745 1.55014L17.312 5.52548H20.1848C20.2511 5.52548 20.3147 5.55182 20.3616 5.59871C20.4085 5.6456 20.4348 5.70919 20.4348 5.7755C20.4348 5.84181 20.4085 5.90541 20.3616 5.9523C20.3147 5.99918 20.2511 6.02553 20.1848 6.02553H17.367L17.7621 9.62834H20.1948C20.2611 9.62834 20.3247 9.65468 20.3716 9.70157C20.4185 9.74846 20.4448 9.81205 20.4448 9.87836C20.4448 9.94467 20.4185 10.0083 20.3716 10.0552C20.3247 10.102 20.2611 10.1284 20.1948 10.1284H17.8271L17.9871 11.6785H20.1923C20.2586 11.6785 20.3222 11.7049 20.3691 11.7517C20.416 11.7986 20.4423 11.8622 20.4423 11.9285C20.4423 11.9948 20.416 12.0584 20.3691 12.1053C20.3222 12.1522 20.2586 12.1786 20.1923 12.1786H18.0496L18.2996 14.5138L19.7472 17.449ZM6.09605 20.0192L6.25106 20.0017C6.54046 19.9707 6.43833 19.983 6.34011 19.9949C6.02763 20.0328 5.75473 20.0659 18.2546 18.6791C18.1779 17.9957 18.1285 17.5341 18.0695 16.9835C17.9727 16.0798 17.8503 14.9362 17.5395 12.1786L17.4845 11.6785C17.2576 9.60469 17.1763 8.86823 17.0746 7.94775C16.9589 6.90066 16.8169 5.61545 16.4044 1.85266L4.24338 3.19028L6.09605 20.0192Z" fill="#828282"/>
<path d="M18.0496 12.1786L18.2996 14.5138L19.7472 17.449H22.6525V0.500044H10.4189V2.00017L16.597 1.32762C16.6298 1.3238 16.6631 1.32654 16.6949 1.33569C16.7267 1.34484 16.7564 1.36021 16.7822 1.38091C16.808 1.4016 16.8295 1.42722 16.8453 1.45627C16.8611 1.48532 16.8711 1.51722 16.8745 1.55014L17.312 5.52548H20.1848C20.2511 5.52548 20.3147 5.55182 20.3616 5.59871C20.4085 5.6456 20.4348 5.70919 20.4348 5.7755C20.4348 5.84181 20.4085 5.90541 20.3616 5.9523C20.3147 5.99918 20.2511 6.02553 20.1848 6.02553H17.367L17.7621 9.62834H20.1948C20.2611 9.62834 20.3247 9.65468 20.3716 9.70157C20.4185 9.74846 20.4448 9.81205 20.4448 9.87836C20.4448 9.94467 20.4185 10.0083 20.3716 10.0552C20.3247 10.102 20.2611 10.1284 20.1948 10.1284H17.8271L17.9871 11.6785M18.0496 12.1786H20.1923C20.2586 12.1786 20.3222 12.1522 20.3691 12.1053C20.416 12.0584 20.4423 11.9948 20.4423 11.9285C20.4423 11.8622 20.416 11.7986 20.3691 11.7517C20.3222 11.7049 20.2586 11.6785 20.1923 11.6785H17.9871M18.0496 12.1786L17.9871 11.6785M22.9025 0H10.1689C10.1026 0 10.039 0.0263415 9.99211 0.0732297C9.94522 0.120118 9.91888 0.183712 9.91888 0.250022V2.06268L3.94086 2.72024C3.90818 2.72367 3.8765 2.73351 3.84763 2.74919C3.81876 2.76487 3.79326 2.78609 3.7726 2.81163C3.75193 2.83717 3.7365 2.86654 3.72719 2.89805C3.71788 2.92955 3.71487 2.96259 3.71834 2.99526L4.21838 7.56316L1.14061 9.08329C1.11102 9.09769 1.08457 9.11779 1.06276 9.14244C1.04096 9.16709 1.02423 9.1958 1.01355 9.22693C1.00286 9.25805 0.998425 9.29098 1.00049 9.32383C1.00256 9.35667 1.0111 9.38878 1.0256 9.41832L5.40098 18.2841L5.626 20.3293C5.63355 20.3948 5.66668 20.4547 5.7182 20.4959C5.76972 20.5371 5.83543 20.5563 5.90103 20.5493L6.48608 20.4843L7.53867 22.617C7.55318 22.6468 7.57348 22.6734 7.59837 22.6953C7.62327 22.7172 7.65227 22.7339 7.68368 22.7445C11.3145 23.9724 11.3853 24.0116 11.4444 23.9984C11.4495 23.9973 11.4544 23.9958 11.4615 23.9946C11.4631 23.9946 11.4633 23.9952 11.4637 23.9957C11.4703 24.004 11.5426 23.96 20.4973 19.5417C20.5566 19.5122 20.6018 19.4603 20.6229 19.3975C20.644 19.3347 20.6393 19.266 20.6098 19.2067L19.9948 17.9566H22.9025C22.9688 17.9566 23.0324 17.9302 23.0793 17.8833C23.1262 17.8364 23.1525 17.7729 23.1525 17.7065V0.250022C23.1525 0.183712 23.1262 0.120118 23.0793 0.0732297C23.0324 0.0263415 22.9688 0 22.9025 0ZM1.57565 9.42082L4.26839 8.0907L5.24097 16.8265L1.57565 9.42082ZM6.25106 20.0017L6.09605 20.0192L4.24338 3.19028L16.4044 1.85266C16.8169 5.61545 16.9589 6.90066 17.0746 7.94775C17.1763 8.86823 17.2576 9.60469 17.4845 11.6785L17.5395 12.1786C17.8503 14.9362 17.9727 16.0798 18.0695 16.9835C18.1285 17.5341 18.1779 17.9957 18.2546 18.6791C5.75473 20.0659 6.02763 20.0328 6.34011 19.9949C6.43833 19.983 6.54046 19.9707 6.25106 20.0017ZM11.519 23.407L10.4264 21.1943C10.412 21.1648 10.3919 21.1383 10.3673 21.1165C10.3426 21.0947 10.3139 21.078 10.2828 21.0673C10.2517 21.0566 10.2187 21.0522 10.1859 21.0542C10.153 21.0563 10.1209 21.0648 10.0914 21.0793L7.8787 22.1719L7.01613 20.4218L18.5596 19.1542C18.5923 19.1504 18.624 19.1403 18.6527 19.1243C18.6815 19.1084 18.7068 19.0869 18.7272 19.0611C18.7477 19.0353 18.7628 19.0057 18.7718 18.9741C18.7808 18.9424 18.7835 18.9093 18.7796 18.8766C18.6683 17.8686 18.6434 17.6432 18.6187 17.4178C18.594 17.1926 18.5696 16.9673 18.4596 15.9614C19.2874 17.6373 19.2954 17.6543 19.3043 17.6731C19.3129 17.6911 19.3222 17.7108 20.0523 19.1892L11.519 23.407ZM10.914 23.312L8.41375 22.4645L10.0864 21.6394L10.914 23.312Z" stroke="#828282" stroke-width="0.3"/>
<path d="M20.1845 7.57844H18.8394C18.773 7.57844 18.7095 7.60478 18.6626 7.65167C18.6157 7.69856 18.5893 7.76216 18.5893 7.82846C18.5893 7.89477 18.6157 7.95837 18.6626 8.00526C18.7095 8.05215 18.773 8.07849 18.8394 8.07849H20.1845C20.2508 8.07849 20.3144 8.05215 20.3613 8.00526C20.4082 7.95837 20.4345 7.89477 20.4345 7.82846C20.4345 7.76216 20.4082 7.69856 20.3613 7.65167C20.3144 7.60478 20.2508 7.57844 20.1845 7.57844ZM18.0493 3.97563H20.1845C20.2508 3.97563 20.3144 3.94929 20.3613 3.9024C20.4082 3.85551 20.4345 3.79192 20.4345 3.72561C20.4345 3.6593 20.4082 3.5957 20.3613 3.54882C20.3144 3.50193 20.2508 3.47559 20.1845 3.47559H18.0493C17.983 3.47559 17.9194 3.50193 17.8725 3.54882C17.8256 3.5957 17.7993 3.6593 17.7993 3.72561C17.7993 3.79192 17.8256 3.85551 17.8725 3.9024C17.9194 3.94929 17.983 3.97563 18.0493 3.97563ZM7.04833 6.36584C7.08333 6.36584 10.2986 6.01081 10.9787 5.9358C11.045 5.92851 11.1057 5.89517 11.1474 5.84312C11.1891 5.79108 11.2085 5.72459 11.2012 5.65828C11.1939 5.59197 11.1606 5.53127 11.1085 5.48954C11.0565 5.44781 10.99 5.42846 10.9237 5.43576L7.02083 5.86829C6.988 5.8701 6.95584 5.87836 6.9262 5.89259C6.89655 5.90682 6.87 5.92675 6.84806 5.95125C6.82612 5.97574 6.80922 6.00432 6.79833 6.03534C6.78743 6.06637 6.78275 6.09923 6.78456 6.13207C6.78636 6.1649 6.79462 6.19706 6.80885 6.2267C6.82309 6.25634 6.84302 6.28289 6.86751 6.30483C6.892 6.32677 6.92058 6.34367 6.9516 6.35457C6.98263 6.36546 7.0155 6.37014 7.04833 6.36834V6.36584ZM7.24585 7.90597C7.17954 7.90929 7.11726 7.93881 7.07272 7.98804C7.02817 8.03727 7.00501 8.10218 7.00833 8.16849C7.01164 8.2348 7.04116 8.29708 7.0904 8.34163C7.13963 8.38617 7.20454 8.40933 7.27085 8.40602C7.35336 8.40602 14.664 7.57844 14.8765 7.57844L14.774 7.37343C14.7766 7.32997 14.7679 7.28658 14.7486 7.24755C14.7293 7.20852 14.7001 7.17521 14.664 7.15091C14.5515 7.0734 15.2065 7.0284 7.24585 7.90597ZM12.4888 9.3936C12.456 9.39541 12.4238 9.40366 12.3942 9.4179C12.3645 9.43213 12.338 9.45206 12.316 9.47655C12.2717 9.52602 12.2489 9.59106 12.2525 9.65737C12.2562 9.72368 12.286 9.78583 12.3355 9.83014C12.385 9.87445 12.45 9.89729 12.5163 9.89365C12.5588 9.89365 14.779 9.64362 14.8365 9.63112C14.8935 9.60967 14.9406 9.56818 14.9692 9.51444C14.9977 9.46069 15.0057 9.39838 14.9916 9.33919C14.9775 9.27999 14.9422 9.22797 14.8925 9.19288C14.8428 9.15779 14.782 9.14204 14.7215 9.14858L12.4888 9.3936ZM7.69339 11.9838C7.66055 11.9856 7.6284 11.9939 7.59875 12.0081C7.56911 12.0224 7.54256 12.0423 7.52062 12.0668C7.47631 12.1162 7.45347 12.1813 7.45712 12.2476C7.46076 12.3139 7.4906 12.3761 7.54007 12.4204C7.58954 12.4647 7.65458 12.4875 7.72089 12.4839C7.76089 12.4839 7.54837 12.5089 15.0015 11.6863C15.0344 11.6827 15.0662 11.6726 15.0951 11.6567C15.1241 11.6408 15.1496 11.6194 15.1703 11.5936C15.1909 11.5679 15.2063 11.5383 15.2155 11.5065C15.2248 11.4748 15.2277 11.4416 15.224 11.4088C15.2204 11.3759 15.2104 11.3441 15.1945 11.3152C15.1786 11.2862 15.1571 11.2607 15.1314 11.24C15.1056 11.2194 15.076 11.204 15.0443 11.1948C15.0126 11.1855 14.9794 11.1826 14.9465 11.1863L7.69339 11.9838ZM7.97341 14.519L9.69606 14.329C9.75341 14.3229 9.8069 14.2972 9.84745 14.2562C9.88801 14.2152 9.91313 14.1614 9.91858 14.104V14.054C9.91486 14.0213 9.90472 13.9897 9.88874 13.9609C9.87277 13.9322 9.85127 13.9068 9.82549 13.8864C9.79971 13.8659 9.77015 13.8508 9.7385 13.8418C9.70685 13.8328 9.67373 13.8302 9.64106 13.834L7.91841 14.0215C7.8855 14.0249 7.85359 14.0348 7.82454 14.0507C7.79549 14.0665 7.76988 14.088 7.74918 14.1138C7.72848 14.1396 7.71311 14.1693 7.70396 14.2011C7.69482 14.2329 7.69207 14.2662 7.69589 14.299C7.69961 14.3317 7.70975 14.3634 7.72573 14.3921C7.7417 14.4209 7.76319 14.4462 7.78898 14.4666C7.81476 14.4871 7.84432 14.5022 7.87597 14.5112C7.90762 14.5202 7.94073 14.5229 7.97341 14.519ZM11.1512 15.7292C9.95108 15.8592 10.3011 15.8217 8.15093 16.0617C8.08539 16.0692 8.02548 16.1024 7.98427 16.1539C7.94306 16.2054 7.92388 16.2711 7.93091 16.3367C7.93771 16.3981 7.96702 16.4549 8.01319 16.496C8.05936 16.5371 8.11912 16.5596 8.18093 16.5592C8.23093 16.5592 11.1937 16.2292 11.2187 16.2267C11.2842 16.2192 11.3441 16.186 11.3853 16.1345C11.4266 16.083 11.4457 16.0173 11.4387 15.9517C11.4354 15.9178 11.4252 15.885 11.4087 15.8552C11.3922 15.8254 11.3698 15.7993 11.3429 15.7784C11.316 15.7576 11.2851 15.7425 11.2521 15.734C11.2192 15.7255 11.1848 15.7239 11.1512 15.7292ZM10.9262 13.6915C10.8933 13.6933 10.8612 13.7015 10.8315 13.7158C10.8019 13.73 10.7753 13.7499 10.7534 13.7744C10.7091 13.8239 10.6863 13.8889 10.6899 13.9552C10.6935 14.0216 10.7234 14.0837 10.7729 14.128C10.8223 14.1723 10.8874 14.1952 10.9537 14.1915C10.9962 14.1915 10.6311 14.229 15.2265 13.724C15.2929 13.7167 15.3535 13.6833 15.3953 13.6313C15.437 13.5793 15.4564 13.5128 15.4491 13.4465C15.4418 13.3801 15.4084 13.3194 15.3564 13.2777C15.3043 13.236 15.2378 13.2166 15.1715 13.2239L10.9262 13.6915ZM11.1512 10.0437C11.2175 10.0364 11.2782 10.003 11.3199 9.95098C11.3617 9.89894 11.381 9.83244 11.3737 9.76613C11.3664 9.69982 11.3331 9.63913 11.281 9.5974C11.229 9.55567 11.1625 9.53632 11.0962 9.54361L7.54587 9.93365C7.47956 9.9373 7.41742 9.96713 7.37311 10.0166C7.3288 10.0661 7.30596 10.1311 7.3096 10.1974C7.31325 10.2637 7.34309 10.3259 7.39256 10.3702C7.44202 10.4145 7.50707 10.4373 7.57338 10.4337C7.59838 10.4362 8.36845 10.3487 11.1512 10.0437ZM12.1788 5.80079C12.2288 5.80079 14.304 5.56827 14.329 5.56577C14.3953 5.55847 14.456 5.52514 14.4977 5.47309C14.5394 5.42105 14.5588 5.35455 14.5515 5.28824C14.5442 5.22193 14.5109 5.16124 14.4588 5.11951C14.4068 5.07778 14.3403 5.05843 14.274 5.06572C13.0013 5.20324 14.0039 5.09823 12.1513 5.29824C12.1184 5.30005 12.0863 5.30831 12.0566 5.32254C12.027 5.33677 12.0004 5.3567 11.9785 5.3812C11.9342 5.43067 11.9114 5.49571 11.915 5.56202C11.9187 5.62833 11.9485 5.69047 11.998 5.73478C12.0474 5.77909 12.1125 5.80194 12.1788 5.79829V5.80079Z" fill="#828282" stroke="#828282" stroke-width="0.3"/>
</svg>
