<svg width="140" height="140" viewBox="0 0 140 140" fill="none" xmlns="http://www.w3.org/2000/svg">
<path fill-rule="evenodd" clip-rule="evenodd" d="M62.7267 75.0385C61.4933 75.0385 60.4927 76.0392 60.4927 77.2726V93.2948L48.7349 93.3064C47.5073 93.3064 46.5125 94.3013 46.5125 95.5288C46.5125 96.7564 47.5073 97.7513 48.7349 97.7513H62.7267C63.9601 97.7513 64.9607 96.7506 64.9607 95.5172V77.2726C64.9607 76.0392 63.9601 75.0385 62.7267 75.0385ZM64.9607 113.78C64.9607 112.546 63.9601 111.546 62.7267 111.546H44.4761C43.2427 111.546 42.242 112.546 42.242 113.78C42.242 115.013 43.2427 116.014 44.4761 116.014H62.7267C63.9601 116.014 64.9607 115.013 64.9607 113.78ZM26.2195 116.014C27.4528 116.014 28.4535 115.013 28.4535 113.78V97.4206C28.4535 96.1873 27.4528 95.1866 26.2195 95.1866C24.9861 95.1866 23.9854 96.1873 23.9854 97.4206V113.78C23.9854 115.013 24.9861 116.014 26.2195 116.014ZM23.9854 77.2726C23.9854 78.5059 24.9861 79.5066 26.2195 79.5066H44.4761C45.7094 79.5066 46.7101 78.5059 46.7101 77.2726C46.7101 76.0392 45.7094 75.0385 44.4761 75.0385H26.2195C24.9861 75.0385 23.9854 76.0392 23.9854 77.2726ZM77.2763 64.9555C78.5096 64.9555 79.5103 63.9549 79.5103 62.7215V46.6993L91.2681 46.6876C92.4957 46.6876 93.4905 45.6928 93.4905 44.4652C93.4905 43.2376 92.4956 42.2428 91.2681 42.2428H77.2763C76.0429 42.2428 75.0422 43.2434 75.0422 44.4768V62.7215C75.0422 63.9549 76.0429 64.9555 77.2763 64.9555ZM75.0422 26.2143C75.0422 27.4476 76.0429 28.4483 77.2763 28.4483H95.5269C96.7603 28.4483 97.7609 27.4476 97.7609 26.2143C97.7609 24.9809 96.7603 23.9802 95.5269 23.9802H77.2763C76.0429 23.9802 75.0422 24.9809 75.0422 26.2143ZM113.784 23.9802C112.55 23.9802 111.549 24.9809 111.549 26.2143V42.5734C111.549 43.8068 112.55 44.8074 113.784 44.8074C115.017 44.8074 116.018 43.8068 116.018 42.5734V26.2143C116.018 24.9809 115.017 23.9802 113.784 23.9802ZM116.018 62.7215C116.018 61.4881 115.017 60.4874 113.784 60.4874H95.5269C94.2935 60.4874 93.2929 61.4881 93.2929 62.7215C93.2929 63.9549 94.2935 64.9555 95.5269 64.9555H113.784C115.017 64.9555 116.018 63.9549 116.018 62.7215ZM89.5233 113.778C89.5233 112.545 88.5226 111.544 87.2893 111.544H79.5108V79.5051H111.55V111.544H103.771C102.538 111.544 101.537 112.545 101.537 113.778C101.537 115.012 102.538 116.012 103.771 116.012H113.784C115.017 116.012 116.018 115.012 116.018 113.778V77.2711C116.018 76.0377 115.017 75.037 113.784 75.037H77.2767C76.0434 75.037 75.0427 76.0377 75.0427 77.2711V113.778C75.0427 115.012 76.0434 116.012 77.2767 116.012H87.2893C88.5226 116.012 89.5233 115.012 89.5233 113.778ZM97.93 113.778C97.93 112.545 96.9293 111.544 95.696 111.544H95.3643C94.131 111.544 93.1303 112.545 93.1303 113.778C93.1303 115.012 94.131 116.012 95.3643 116.012H95.696C96.9293 116.012 97.93 115.012 97.93 113.778Z" fill="#828282"/>
<path fill-rule="evenodd" clip-rule="evenodd" d="M26.2202 23.9862H62.7274C63.9608 23.9862 64.9615 24.9868 64.9615 26.2202V62.7274C64.9615 63.9608 63.9608 64.9615 62.7274 64.9615H26.2202C24.9868 64.9615 23.9862 63.9608 23.9862 62.7274V26.2202C23.9862 24.9868 24.9868 23.9862 26.2202 23.9862ZM28.4543 28.4543H60.4934V60.4934H28.4543V28.4543Z" fill="#828282"/>
<path d="M4.46809 39.0615C4.46809 40.2949 3.46741 41.2955 2.23404 41.2955C1.00067 41.2955 0 40.2949 0 39.0615V2.23404C0 1.00067 1.00067 0 2.23404 0H39.0615C40.2949 0 41.2955 1.00067 41.2955 2.23404C41.2955 3.46741 40.2949 4.46808 39.0615 4.46808H4.46809V39.0615Z" fill="#1DAEDE"/>
<path d="M100.938 4.46808C99.7044 4.46808 98.7037 3.46741 98.7037 2.23404C98.7037 1.00067 99.7044 0 100.938 0H137.765C138.999 0 139.999 1.00067 139.999 2.23404V39.0615C139.999 40.2949 138.999 41.2955 137.765 41.2955C136.532 41.2955 135.531 40.2949 135.531 39.0615V4.46808H100.938Z" fill="#1DAEDE"/>
<path d="M135.532 100.939C135.532 99.7051 136.533 98.7045 137.766 98.7045C138.999 98.7045 140 99.7051 140 100.939V137.766C140 138.999 138.999 140 137.766 140H100.938C99.7051 140 98.7045 138.999 98.7045 137.766C98.7045 136.533 99.7051 135.532 100.938 135.532H135.532V100.939Z" fill="#1DAEDE"/>
<path d="M39.0615 135.532C40.2949 135.532 41.2955 136.533 41.2955 137.766C41.2955 138.999 40.2949 140 39.0615 140H2.23404C1.00067 140 0 138.999 0 137.766V100.939C0 99.7051 1.00067 98.7045 2.23404 98.7045C3.46741 98.7045 4.46809 99.7051 4.46809 100.939V135.532H39.0615Z" fill="#1DAEDE"/>
</svg>
