<svg width="17" height="16" viewBox="0 0 17 16" fill="none" xmlns="http://www.w3.org/2000/svg">
<path d="M16.5848 13.633C17.1381 14.1864 17.1381 15.0471 16.5848 15.6004C16.3081 15.877 15.97 16 15.6011 16C15.2322 16 14.8941 15.877 14.6174 15.6004L8.99206 9.97502L3.3667 15.6004C3.09004 15.877 2.75191 16 2.38303 16C2.01415 16 1.67602 15.877 1.39936 15.6004C0.846046 15.0471 0.846046 14.1864 1.39936 13.633L7.02472 8.00769L1.39936 2.38233C0.846046 1.82901 0.846046 0.9683 1.39936 0.414986C1.95267 -0.138329 2.81339 -0.138329 3.3667 0.414986L8.99206 6.04035L14.6174 0.414986C15.1707 -0.138329 16.0314 -0.138329 16.5848 0.414986C17.1381 0.9683 17.1381 1.82901 16.5848 2.38233L10.9594 8.00769L16.5848 13.633Z" fill="#DE1D1D"/>
</svg>
