<svg width="24" height="24" viewBox="0 0 24 24" fill="none" xmlns="http://www.w3.org/2000/svg">
<path d="M12.0808 6.25953C12.0608 6.06844 12.0542 5.90179 12.0542 5.81291C12.0542 4.88857 12.3008 3.33541 13.9517 3.33541C15.6027 3.33541 15.8315 4.88857 15.8315 5.81291C15.8315 6.07955 15.7671 8.31485 14.1139 8.46373C14.285 8.86368 14.4272 9.28808 14.5072 9.75692C16.3559 9.43473 17.1647 7.54161 17.1647 5.81069C17.1647 3.84202 16.2248 2 13.9517 2C11.6787 2 10.721 3.82424 10.721 5.81069C10.721 5.82624 10.7232 5.84402 10.7232 5.85735C11.212 5.92401 11.6675 6.0551 12.0808 6.25508V6.25953ZM14.5672 11.6523C14.5183 12.15 14.4228 12.601 14.2873 13.0143C15.3094 12.9632 16.2848 12.6921 17.1558 12.1966C17.7269 12.4811 18.2313 12.8499 18.6645 13.2987C18.8623 13.5009 19.0223 13.7542 19.1423 14.052L20.02 16.2229H16.9581C17.2625 16.6006 17.5336 17.0183 17.7247 17.4961L17.7491 17.5538H21.9953L20.3755 13.5498C20.1977 13.1121 19.9466 12.7055 19.62 12.3655C18.9112 11.6367 18.0424 11.0657 17.0247 10.6857C16.3204 11.2168 15.4849 11.5456 14.565 11.6523H14.5672ZM15.7338 16.8095C14.9516 16.0029 13.9717 15.3941 12.8163 15.0186L10.0655 17.7671L7.31025 15.0119C6.14816 15.3852 5.16382 15.9984 4.37724 16.8072C4.04839 17.1472 3.79731 17.5538 3.62177 17.9893L2.00195 21.9956H18.1091L16.4915 17.9916C16.3137 17.5538 16.0626 17.1472 15.736 16.8072L15.7338 16.8095ZM3.97729 20.6668L4.85497 18.4937C4.97496 18.196 5.13716 17.9427 5.33047 17.7405C5.80153 17.2561 6.35258 16.8672 6.97918 16.5717L9.11894 18.7115L10.0611 19.6536L11.0032 18.7115L13.1385 16.5784C13.7606 16.8717 14.3095 17.2605 14.7739 17.7405C14.9694 17.9405 15.1316 18.196 15.2494 18.4937L16.1271 20.6668H3.97729ZM10.0633 14.9563C12.3164 14.9563 13.2763 12.841 13.2763 10.9434C13.2763 9.04588 12.3364 7.13276 10.0633 7.13276C7.7902 7.13276 6.83253 8.95701 6.83253 10.9457C6.83253 12.9343 7.77242 14.9586 10.0633 14.9586V14.9563ZM10.0633 8.46373C11.6987 8.46373 11.9431 10.0169 11.9431 10.9412C11.9431 11.2145 11.892 13.6209 10.0633 13.6209C8.23459 13.6209 8.16571 11.3901 8.16571 10.9412C8.16571 10.0169 8.41235 8.46373 10.0633 8.46373Z" fill="#1DAEDE"/>
</svg>
