<svg width="20" height="20" viewBox="0 0 20 20" fill="none" xmlns="http://www.w3.org/2000/svg">
<path d="M7.43684 0C3.33566 0 0 3.33566 0 7.43684C0 11.538 3.33566 14.8737 7.43684 14.8737C9.3042 14.8737 11.0104 14.1785 12.3173 13.0385L19.129 19.8503C19.3185 20.0454 19.667 20.0516 19.8583 19.8583C20.0496 19.6649 20.0475 19.3084 19.8503 19.121L13.0465 12.3173C14.1845 11.0109 14.8737 9.30234 14.8737 7.43684C14.8737 3.33566 11.538 0 7.43684 0ZM7.43684 1.02577C10.9837 1.02577 13.8479 3.89003 13.8479 7.43684C13.8479 10.9836 10.9837 13.8479 7.43684 13.8479C3.89003 13.8479 1.02577 10.9836 1.02577 7.43684C1.02577 3.89003 3.89003 1.02577 7.43684 1.02577Z" fill="#828282"/>
</svg>
