<svg width="19" height="19" viewBox="0 0 19 19" fill="none" xmlns="http://www.w3.org/2000/svg">
<path d="M12.741 3.29396V0.353143C12.741 0.210331 12.8274 0.0816293 12.9588 0.02697C13.091 -0.0276871 13.2426 0.00228512 13.3431 0.102784L18.8969 5.65651C19.0344 5.79403 19.0344 6.01795 18.8969 6.15546L13.3431 11.7155C13.2418 11.8169 13.0901 11.8477 12.9588 11.7913C12.8265 11.7367 12.741 11.6079 12.741 11.4651V8.4415C10.3635 7.78739 8.00969 8.341 5.91607 10.0495C3.69454 11.8628 1.88659 14.8715 0.687555 18.7514C0.641716 18.9013 0.503309 19 0.350798 19C0.333166 19 0.315536 18.9982 0.297903 18.9965C0.12512 18.97 -0.00182152 18.8219 -0.00182152 18.6474C-0.00358391 9.20589 4.75142 3.49261 12.7402 3.29244L12.741 3.29396ZM5.47081 9.50463C7.1246 8.15496 8.93362 7.46912 10.7979 7.46912C11.5905 7.46912 12.3936 7.59254 13.1976 7.84201C13.3448 7.88785 13.4462 8.02361 13.4462 8.17877V10.6145L18.1493 5.90709L13.4471 1.20485V3.6415C13.4471 3.83545 13.2902 3.99325 13.0962 3.99413C6.02438 4.02851 1.55053 8.57991 0.812557 16.3015C2.00795 13.3598 3.59565 11.035 5.47081 9.50463Z" fill="#828282"/>
</svg>
