<svg width="24" height="24" viewBox="0 0 24 24" fill="none" xmlns="http://www.w3.org/2000/svg">
<path d="M20.8363 7.60282H20.5854V5.20627C20.5854 4.54087 20.0285 4 19.3435 4H4.65457C3.96958 4 3.41268 4.54087 3.41268 5.20627V5.9286H3.16182C2.52133 5.9286 2 6.44989 2 7.09042V19.1996C2 19.84 2.52129 20.3614 3.16182 20.3614H20.8382C21.4787 20.3614 22 19.8401 22 19.1996V8.76473C22 8.12424 21.4768 7.60282 20.8363 7.60282ZM4.33955 5.20627C4.33955 5.05504 4.48367 4.92694 4.65447 4.92694H19.3434C19.5142 4.92694 19.6583 5.05504 19.6583 5.20627V7.60282H11.2982L10.7324 6.54244C10.5278 6.15635 10.1434 5.92682 9.70579 5.92682H4.33988L4.33955 5.20627ZM21.0708 19.1997C21.0708 19.3296 20.9659 19.4328 20.8377 19.4328L3.16138 19.4346C3.0315 19.4346 2.9283 19.3296 2.9283 19.2015L2.92653 7.09051C2.92653 6.96063 3.0315 6.85744 3.1596 6.85744L9.70699 6.85566C9.79951 6.85566 9.8689 6.89658 9.91338 6.9802L10.609 8.28613C10.6891 8.43736 10.8474 8.53165 11.0182 8.53165H20.8359C20.9658 8.53165 21.069 8.63663 21.069 8.76473L21.0708 19.1997Z" fill="#1DAEDE" stroke="#1DAEDE" stroke-width="0.4"/>
</svg>
