<svg width="5" height="20" viewBox="0 0 5 20" fill="none" xmlns="http://www.w3.org/2000/svg">
<path d="M0 9.96251C0 11.0603 0.908487 11.9688 2.00624 11.9688C3.10399 11.9688 4.01248 11.0603 4.01248 9.96251C4.01248 8.86476 3.10399 7.95627 2.00624 7.95627C0.908487 7.95627 0 8.86476 0 9.96251Z" fill="#484848"/>
<path d="M0 2.00548C0 3.10323 0.908487 4.01172 2.00624 4.01172C3.10399 4.01172 4.01248 3.10323 4.01248 2.00548C4.01248 0.907725 3.10399 -0.000759125 2.00624 -0.000759125C0.908487 -0.000759125 0 0.907725 0 2.00548Z" fill="#484848"/>
<path d="M0 17.9559C0 19.0537 0.908487 20 2.00624 20C3.10399 20 4.01248 19.0915 4.01248 17.9559C4.01248 16.8582 3.10399 15.9118 2.00624 15.9118C0.908487 15.9497 0 16.8582 0 17.9559Z" fill="#484848"/>
</svg>
