<svg width="24" height="24" viewBox="0 0 24 24" fill="none" xmlns="http://www.w3.org/2000/svg">
<path fill-rule="evenodd" clip-rule="evenodd" d="M6.03968 2.00023C6.03125 1.99992 6.02281 1.99992 6.01438 2.00023C6.00107 2.00063 5.99708 2.00116 5.98909 2.00023C5.90168 2.00559 5.81959 2.04402 5.75948 2.10771C5.69938 2.1714 5.66576 2.25558 5.66547 2.34316C5.66547 3.22469 5.31216 4.06909 4.68981 4.69343C4.0676 5.31778 3.2244 5.67109 2.34286 5.67668C2.25454 5.67725 2.1698 5.71171 2.10614 5.77295C2.04247 5.83418 2.00475 5.91752 2.00074 6.00576C2.00061 6.00576 2.00047 6.01907 2.00034 6.01907C1.99989 6.02927 1.99989 6.03949 2.00034 6.04969C2.00047 6.04969 2.00061 6.063 2.00074 6.063C2.00493 6.1514 2.04295 6.2348 2.10693 6.29593C2.17092 6.35707 2.25597 6.39125 2.34446 6.39141C3.22893 6.39141 4.07639 6.74445 4.7022 7.36946C5.32787 7.99461 5.68051 8.84167 5.68291 9.72613C5.68318 9.81284 5.71612 9.89627 5.77516 9.95978C5.8342 10.0233 5.91501 10.0622 6.00147 10.0688C6.01653 10.07 6.03165 10.0707 6.04673 10.0699C6.06005 10.0693 6.06404 10.0688 6.07203 10.0699C6.15944 10.0645 6.24153 10.0261 6.30164 9.96237C6.36174 9.89868 6.39535 9.8145 6.39565 9.72693C6.39565 8.84553 6.74909 8.00126 7.37144 7.37705C7.99365 6.75284 8.83685 6.39953 9.71825 6.39381C9.80667 6.39323 9.89148 6.35869 9.95516 6.29735C10.0188 6.236 10.0565 6.15253 10.0604 6.0642C10.0605 6.0642 10.0606 6.05088 10.0609 6.05088C10.0611 6.04645 10.0612 6.04201 10.0612 6.03757V6.02426C10.061 5.93302 10.0247 5.84556 9.96016 5.78106C9.89563 5.71655 9.80816 5.68026 9.71692 5.68014C8.83232 5.68014 7.98473 5.3271 7.35892 4.70195C6.73311 4.07681 6.38047 3.22949 6.37807 2.34489C6.37781 2.25362 6.34136 2.16619 6.27673 2.10175C6.2121 2.03732 6.12455 2.00115 6.03329 2.00116L6.03968 2.00023ZM6.36543 2.43967L6.35078 2.48892C6.35105 2.47561 6.35118 2.47295 6.35145 2.46496C6.35624 2.45672 6.36134 2.44828 6.36543 2.43967ZM6.02517 3.93038C6.22552 4.39564 6.51279 4.82389 6.87808 5.18878C7.24191 5.55221 7.66856 5.83815 8.13196 6.03797C7.67269 6.23859 7.25003 6.52387 6.88953 6.88556C6.52731 7.24899 6.24229 7.67471 6.04301 8.13718C5.84252 7.67178 5.55511 7.24353 5.18982 6.87864C4.82613 6.51535 4.39974 6.22953 3.93661 6.02972C4.39575 5.82897 4.81814 5.54369 5.17864 5.18213C5.54073 4.8187 5.82588 4.39284 6.02517 3.93038ZM14.8582 4.85158H14.8449C14.8374 4.85134 14.8298 4.85134 14.8223 4.85158C14.8077 4.85252 14.7917 4.85158 14.777 4.85158C14.6896 4.85695 14.6075 4.89539 14.5474 4.95911C14.4873 5.02283 14.4537 5.10704 14.4534 5.19464C14.4534 6.89608 13.7713 8.5263 12.5701 9.73146C11.3691 10.9365 9.74102 11.6186 8.03958 11.6297C7.95123 11.6302 7.86647 11.6647 7.8028 11.726C7.73914 11.7872 7.70143 11.8706 7.69745 11.9589C7.69719 11.9722 7.69692 11.9722 7.69665 11.9788C7.69624 11.9886 7.69624 11.9984 7.69665 12.0081C7.69692 12.0081 7.69719 12.0214 7.69745 12.0268C7.70161 12.1152 7.73961 12.1986 7.8036 12.2598C7.86759 12.3209 7.95266 12.3551 8.04117 12.3553C9.74847 12.3553 11.3845 13.037 12.5925 14.2436C13.8003 15.4501 14.481 17.0855 14.4858 18.7927C14.486 18.8793 14.5189 18.9627 14.5778 19.0262C14.6368 19.0897 14.7174 19.1287 14.8038 19.1354L14.8171 19.1363C14.8322 19.1375 14.8473 19.1376 14.8624 19.1368C14.877 19.1359 14.893 19.1368 14.9076 19.1368C14.995 19.1315 15.0771 19.093 15.1372 19.0294C15.1974 18.9657 15.231 18.8815 15.2313 18.7939C15.2313 17.0926 15.9136 15.4625 17.1147 14.2575C18.3158 13.0526 19.9437 12.3706 21.645 12.3596C21.7334 12.359 21.8183 12.3245 21.882 12.2631C21.9457 12.2017 21.9834 12.1182 21.9872 12.0298C21.9875 12.0165 21.9878 12.0165 21.988 12.0085C21.9882 12.0041 21.9883 11.9996 21.9883 11.9952V11.9766C21.9882 11.8853 21.9519 11.7979 21.8874 11.7333C21.8229 11.6688 21.7354 11.6325 21.6442 11.6323C19.9366 11.6323 18.3001 10.9507 17.092 9.7441C15.8841 8.53735 15.2034 6.90154 15.1988 5.19411C15.1978 5.12262 15.1746 5.05321 15.1324 4.99549C15.0902 4.93777 15.0311 4.8946 14.9633 4.87195C14.9588 4.87187 14.9544 4.87187 14.95 4.87195C14.9187 4.86064 14.886 4.85392 14.8528 4.85198L14.8582 4.85158ZM14.8316 7.284C15.172 8.38732 15.7779 9.40224 16.6095 10.2329C17.437 11.0595 18.4466 11.6621 19.5438 12.0023C18.454 12.3457 17.4523 12.9484 16.631 13.7721C15.8051 14.6007 15.2034 15.6111 14.8644 16.7092C14.5241 15.6058 13.9183 14.5907 13.0865 13.7599C12.2593 12.9336 11.2501 12.3311 10.1533 11.9909C11.2428 11.6474 12.2443 11.0447 13.0652 10.2209C13.8911 9.39239 14.4928 8.38199 14.8316 7.284ZM8.65647 15.3998C8.64893 15.3996 8.64138 15.3996 8.63384 15.3998C8.62052 15.4002 8.61919 15.4006 8.61254 15.4011C8.52513 15.4065 8.44303 15.4449 8.38293 15.5086C8.32282 15.5723 8.28921 15.6565 8.28892 15.7441C8.28892 17.1779 7.13275 18.3334 5.69888 18.3426C5.61055 18.3432 5.52582 18.3777 5.46215 18.4389C5.39849 18.5001 5.36077 18.5835 5.35676 18.6717C5.35663 18.6717 5.35649 18.6717 5.35636 18.685C5.35594 18.6948 5.35594 18.7045 5.35636 18.7143C5.35649 18.7143 5.35663 18.7143 5.35676 18.7276C5.36088 18.8161 5.39887 18.8995 5.46287 18.9607C5.52686 19.0219 5.61194 19.0561 5.70048 19.0563C7.13967 19.0563 8.2989 20.2167 8.30289 21.6559C8.30317 21.7427 8.33614 21.8261 8.39524 21.8896C8.45434 21.9532 8.53521 21.992 8.62172 21.9986C8.63678 21.9997 8.6519 22.0003 8.66698 21.9995C8.6803 21.9991 8.68163 21.9987 8.68828 21.9983C8.77569 21.9929 8.85779 21.9545 8.91789 21.8908C8.978 21.8271 9.01161 21.743 9.0119 21.6554C9.0119 20.2215 10.1682 19.0663 11.6019 19.0571C11.6904 19.0565 11.7752 19.0219 11.8389 18.9605C11.9026 18.8991 11.9403 18.8156 11.9441 18.7272C11.9442 18.7272 11.9443 18.7272 11.9445 18.7139C11.9446 18.7095 11.9447 18.705 11.9447 18.7006C11.9447 18.7006 11.9447 18.7006 11.9447 18.6873C11.9446 18.596 11.9083 18.5086 11.8438 18.444C11.7793 18.3795 11.6918 18.3432 11.6006 18.343C10.1612 18.343 9.00179 17.1826 8.99793 15.7431C8.99766 15.6519 8.9612 15.5644 8.89654 15.5C8.83187 15.4355 8.74429 15.3994 8.65301 15.3994L8.65647 15.3998ZM8.64315 17.1781C8.96624 17.839 9.50419 18.3768 10.1651 18.6999C9.51058 19.0237 8.97822 19.5583 8.6574 20.2143C8.33444 19.5534 7.79663 19.0157 7.13581 18.6925C7.79024 18.3687 8.32246 17.8341 8.64315 17.1781Z" fill="#1DAEDE" stroke="#1DAEDE" stroke-width="0.5"/>
</svg>
