<svg width="20" height="20" viewBox="0 0 20 20" fill="none" xmlns="http://www.w3.org/2000/svg">
<path fill-rule="evenodd" clip-rule="evenodd" d="M13.857 1H16.7969C18.0133 1 19 1.99531 19 3.22316V6.18769C19 7.41462 18.0133 8.41086 16.7969 8.41086H13.857C12.6397 8.41086 11.6529 7.41462 11.6529 6.18769V3.22316C11.6529 1.99531 12.6397 1 13.857 1ZM3.20403 1H6.14304C7.36033 1 8.34707 1.99531 8.34707 3.22316V6.18769C8.34707 7.41462 7.36033 8.41086 6.14304 8.41086H3.20403C1.98674 8.41086 1 7.41462 1 6.18769V3.22316C1 1.99531 1.98674 1 3.20403 1ZM3.20403 11.5891H6.14304C7.36033 11.5891 8.34707 12.5845 8.34707 13.8132V16.7768C8.34707 18.0047 7.36033 19 6.14304 19H3.20403C1.98674 19 1 18.0047 1 16.7768V13.8132C1 12.5845 1.98674 11.5891 3.20403 11.5891Z" stroke="#484848" stroke-width="1.2" stroke-linecap="round" stroke-linejoin="round"/>
<path fill-rule="evenodd" clip-rule="evenodd" d="M14.5008 14.5H12.7008C12.2058 14.5 11.8008 14.9032 11.8008 15.4C11.8008 15.8968 12.2058 16.3 12.7008 16.3H14.5008V18.1C14.5008 18.5968 14.9058 19 15.4008 19C15.8958 19 16.3008 18.5968 16.3008 18.1V16.3H18.1008C18.5958 16.3 19.0008 15.8968 19.0008 15.4C19.0008 14.9032 18.5958 14.5 18.1008 14.5H16.3008V12.7C16.3008 12.2032 15.8958 11.8 15.4008 11.8C14.9058 11.8 14.5008 12.2032 14.5008 12.7V14.5Z" fill="#484848"/>
</svg>
