<svg width="24" height="24" viewBox="0 0 24 24" fill="none" xmlns="http://www.w3.org/2000/svg">
<path d="M2.67573 22H20.4833C21.0795 22 21.0795 21.2845 21.0795 21.2845C21.0397 20.1715 20.9205 18.1444 20.4833 17.2699C19.9268 16.1172 15.9916 15.7197 15.1569 15.1632C15.0774 14.9644 14.9979 14.4079 14.9582 13.8515C15.7929 12.6987 16.0711 11.5063 16.1109 7.92887C16.0314 5.38494 14.2427 3 11.5795 3C8.79707 3 7.00837 5.46444 7.00837 8.16736C7.08786 11.1485 7.24686 12.5 8.16109 13.8515C8.12134 14.4079 8.04184 14.9644 7.96234 15.2029C7.12761 15.7197 3.47071 16.1967 2.71548 17.1904C2.159 17.7866 2 20.8075 2 21.4435C2.0795 21.7218 2.35774 22 2.67573 22ZM8.24058 8.12762C8.24058 6.14017 9.51255 4.15272 11.6192 4.15272C13.6067 4.15272 14.8787 5.98117 14.9582 7.92887C14.8389 9.99582 15.0774 14.4477 11.6192 14.4477C8.04184 14.4874 8.32008 9.75732 8.24058 8.12762ZM8.91632 15.9979C8.99582 15.9184 9.15481 15.7594 9.31381 14.9247C9.98954 15.4017 10.7845 15.6799 11.6192 15.6799C12.454 15.6799 13.249 15.4017 13.9247 14.9247C14.0439 15.7197 14.2427 15.9184 14.3222 15.9979C15.1172 16.7929 18.9331 17.3096 19.4895 17.8661C19.6883 18.3033 19.8473 19.4163 19.9268 20.8075H3.31172C3.35146 19.7741 3.47071 18.3828 3.74895 17.8661C4.30544 17.3096 8.20084 16.6736 8.91632 15.9979Z" fill="#828282"/>
</svg>
