<svg width="24" height="24" viewBox="0 0 24 24" fill="none" xmlns="http://www.w3.org/2000/svg">
<path d="M24 15C24 11.6865 20.6415 9 16.5 9C12.3585 9 9 11.6865 9 15C9 18.3135 12.3585 21 16.5 21C17.181 21 17.829 20.904 18.4575 20.7675L22.5 22.5L21.102 19.7055C22.854 18.6075 24 16.9185 24 15Z" fill="#00C70A"/>
<path d="M9 1.5C4.029 1.5 0 4.8585 0 9C0 11.388 1.347 13.506 3.4365 14.877L2.25 17.25L5.4825 15.8655C6.1755 16.1115 6.8955 16.314 7.665 16.4085C7.557 15.9467 7.50165 15.4742 7.5 15C7.5 10.8645 11.5365 7.5 16.5 7.5C16.9545 7.5 17.3985 7.5375 17.8365 7.5915C17.0445 4.1235 13.392 1.5 9 1.5Z" fill="#00C70A"/>
<path d="M6 7.125C6.62132 7.125 7.125 6.62132 7.125 6C7.125 5.37868 6.62132 4.875 6 4.875C5.37868 4.875 4.875 5.37868 4.875 6C4.875 6.62132 5.37868 7.125 6 7.125Z" fill="#FAFAFA"/>
<path d="M12 7.125C12.6213 7.125 13.125 6.62132 13.125 6C13.125 5.37868 12.6213 4.875 12 4.875C11.3787 4.875 10.875 5.37868 10.875 6C10.875 6.62132 11.3787 7.125 12 7.125Z" fill="#FAFAFA"/>
<path d="M14.25 14.625C14.8713 14.625 15.375 14.1213 15.375 13.5C15.375 12.8787 14.8713 12.375 14.25 12.375C13.6287 12.375 13.125 12.8787 13.125 13.5C13.125 14.1213 13.6287 14.625 14.25 14.625Z" fill="#FAFAFA"/>
<path d="M18.75 14.625C19.3713 14.625 19.875 14.1213 19.875 13.5C19.875 12.8787 19.3713 12.375 18.75 12.375C18.1287 12.375 17.625 12.8787 17.625 13.5C17.625 14.1213 18.1287 14.625 18.75 14.625Z" fill="#FAFAFA"/>
</svg>
