<svg width="22" height="19" viewBox="0 0 22 19" fill="none" xmlns="http://www.w3.org/2000/svg">
<path d="M19.5 3H9.785L9.225 1.845C9.10201 1.59161 8.91016 1.37797 8.67141 1.22853C8.43266 1.07909 8.15666 0.999894 7.875 1H2.5C2.10218 1 1.72064 1.15804 1.43934 1.43934C1.15804 1.72064 1 2.10218 1 2.5V16.5C1 16.8978 1.15804 17.2794 1.43934 17.5607C1.72064 17.842 2.10218 18 2.5 18H19.5C19.8978 18 20.2794 17.842 20.5607 17.5607C20.842 17.2794 21 16.8978 21 16.5V4.5C21 4.10218 20.842 3.72064 20.5607 3.43934C20.2794 3.15804 19.8978 3 19.5 3ZM20 16.5C20 16.6326 19.9473 16.7598 19.8536 16.8536C19.7598 16.9473 19.6326 17 19.5 17H2.5C2.36739 17 2.24021 16.9473 2.14645 16.8536C2.05268 16.7598 2 16.6326 2 16.5V2.5C2 2.36739 2.05268 2.24022 2.14645 2.14645C2.24021 2.05268 2.36739 2 2.5 2H7.875C7.96871 1.99981 8.06059 2.02596 8.14015 2.07547C8.21972 2.12498 8.28377 2.19585 8.325 2.28L9.72 5.155C9.84299 5.40839 10.0348 5.62203 10.2736 5.77147C10.5123 5.92091 10.7883 6.00011 11.07 6H18.5C18.6326 6 18.7598 5.94732 18.8536 5.85355C18.9473 5.75979 19 5.63261 19 5.5C19 5.36739 18.9473 5.24021 18.8536 5.14645C18.7598 5.05268 18.6326 5 18.5 5H11.07C10.9763 5.00019 10.8844 4.97404 10.8048 4.92453C10.7253 4.87502 10.6612 4.80415 10.62 4.72L10.27 4H19.5C19.6326 4 19.7598 4.05268 19.8536 4.14645C19.9473 4.24021 20 4.36739 20 4.5V16.5Z" fill="#DECB1D" stroke="#DECB1D" stroke-width="0.4"/>
</svg>
